solid OpenSCAD_Model
  facet normal 0.980801 0.195013 0
    outer loop
      vertex -22.9319 11.4824 16
      vertex -22.9829 11.7389 0
      vertex -22.9829 11.7389 16
    endloop
  endfacet
  facet normal 0.980801 0.195013 0
    outer loop
      vertex -22.9829 11.7389 0
      vertex -22.9319 11.4824 16
      vertex -22.9319 11.4824 0
    endloop
  endfacet
  facet normal 0.997862 0.0653521 0
    outer loop
      vertex -22.9829 11.7389 16
      vertex -23 12 0
      vertex -23 12 16
    endloop
  endfacet
  facet normal 0.997862 0.0653521 0
    outer loop
      vertex -23 12 0
      vertex -22.9829 11.7389 16
      vertex -22.9829 11.7389 0
    endloop
  endfacet
  facet normal 0 -1 0
    outer loop
      vertex -21 14 0
      vertex -13 14 16
      vertex -21 14 16
    endloop
  endfacet
  facet normal 0 -1 -0
    outer loop
      vertex -13 14 16
      vertex -21 14 0
      vertex -13 14 0
    endloop
  endfacet
  facet normal 0.751842 -0.659343 0
    outer loop
      vertex -22.5867 13.2175 16
      vertex -22.4142 13.4142 0
      vertex -22.4142 13.4142 16
    endloop
  endfacet
  facet normal 0.751842 -0.659343 0
    outer loop
      vertex -22.4142 13.4142 0
      vertex -22.5867 13.2175 16
      vertex -22.5867 13.2175 0
    endloop
  endfacet
  facet normal -0.555494 -0.831521 0
    outer loop
      vertex -12 13.732 0
      vertex -11.7825 13.5867 16
      vertex -12 13.732 16
    endloop
  endfacet
  facet normal -0.555494 -0.831521 -0
    outer loop
      vertex -11.7825 13.5867 16
      vertex -12 13.732 0
      vertex -11.7825 13.5867 0
    endloop
  endfacet
  facet normal 0.751842 0.659343 0
    outer loop
      vertex -22.4142 10.5858 16
      vertex -22.5867 10.7825 0
      vertex -22.5867 10.7825 16
    endloop
  endfacet
  facet normal 0.751842 0.659343 0
    outer loop
      vertex -22.5867 10.7825 0
      vertex -22.4142 10.5858 16
      vertex -22.4142 10.5858 0
    endloop
  endfacet
  facet normal 0.0653521 -0.997862 0
    outer loop
      vertex -21.2611 13.9829 0
      vertex -21 14 16
      vertex -21.2611 13.9829 16
    endloop
  endfacet
  facet normal 0.0653521 -0.997862 0
    outer loop
      vertex -21 14 16
      vertex -21.2611 13.9829 0
      vertex -21 14 0
    endloop
  endfacet
  facet normal 0.321382 -0.94695 0
    outer loop
      vertex -21.7654 13.8478 0
      vertex -21.5176 13.9319 16
      vertex -21.7654 13.8478 16
    endloop
  endfacet
  facet normal 0.321382 -0.94695 0
    outer loop
      vertex -21.5176 13.9319 16
      vertex -21.7654 13.8478 0
      vertex -21.5176 13.9319 0
    endloop
  endfacet
  facet normal -0.94695 0.321382 0
    outer loop
      vertex -11.1522 11.2346 0
      vertex -11.0681 11.4824 16
      vertex -11.0681 11.4824 0
    endloop
  endfacet
  facet normal -0.94695 0.321382 0
    outer loop
      vertex -11.0681 11.4824 16
      vertex -11.1522 11.2346 0
      vertex -11.1522 11.2346 16
    endloop
  endfacet
  facet normal -0.94695 -0.321382 0
    outer loop
      vertex -11.0681 12.5176 0
      vertex -11.1522 12.7654 16
      vertex -11.1522 12.7654 0
    endloop
  endfacet
  facet normal -0.94695 -0.321382 0
    outer loop
      vertex -11.1522 12.7654 16
      vertex -11.0681 12.5176 0
      vertex -11.0681 12.5176 16
    endloop
  endfacet
  facet normal -0.555758 0.831344 0
    outer loop
      vertex -11.7825 10.4133 0
      vertex -12 10.2679 16
      vertex -11.7825 10.4133 16
    endloop
  endfacet
  facet normal -0.555758 0.831344 0
    outer loop
      vertex -12 10.2679 16
      vertex -11.7825 10.4133 0
      vertex -12 10.2679 0
    endloop
  endfacet
  facet normal 0.0653521 0.997862 -0
    outer loop
      vertex -21 10 0
      vertex -21.2611 10.0171 16
      vertex -21 10 16
    endloop
  endfacet
  facet normal 0.0653521 0.997862 0
    outer loop
      vertex -21.2611 10.0171 16
      vertex -21 10 0
      vertex -21.2611 10.0171 0
    endloop
  endfacet
  facet normal 0.659343 -0.751842 0
    outer loop
      vertex -22.4142 13.4142 0
      vertex -22.2175 13.5867 16
      vertex -22.4142 13.4142 16
    endloop
  endfacet
  facet normal 0.659343 -0.751842 0
    outer loop
      vertex -22.2175 13.5867 16
      vertex -22.4142 13.4142 0
      vertex -22.2175 13.5867 0
    endloop
  endfacet
  facet normal 0.896709 0.442621 0
    outer loop
      vertex -22.732 11 16
      vertex -22.8478 11.2346 0
      vertex -22.8478 11.2346 16
    endloop
  endfacet
  facet normal 0.896709 0.442621 0
    outer loop
      vertex -22.8478 11.2346 0
      vertex -22.732 11 16
      vertex -22.732 11 0
    endloop
  endfacet
  facet normal -0.980801 0.195013 0
    outer loop
      vertex -11.0681 11.4824 0
      vertex -11.0171 11.7389 16
      vertex -11.0171 11.7389 0
    endloop
  endfacet
  facet normal -0.980801 0.195013 0
    outer loop
      vertex -11.0171 11.7389 16
      vertex -11.0681 11.4824 0
      vertex -11.0681 11.4824 16
    endloop
  endfacet
  facet normal 0.94695 -0.321382 0
    outer loop
      vertex -22.9319 12.5176 16
      vertex -22.8478 12.7654 0
      vertex -22.8478 12.7654 16
    endloop
  endfacet
  facet normal 0.94695 -0.321382 0
    outer loop
      vertex -22.8478 12.7654 0
      vertex -22.9319 12.5176 16
      vertex -22.9319 12.5176 0
    endloop
  endfacet
  facet normal -0.0653521 -0.997862 0
    outer loop
      vertex -13 14 0
      vertex -12.7389 13.9829 16
      vertex -13 14 16
    endloop
  endfacet
  facet normal -0.0653521 -0.997862 -0
    outer loop
      vertex -12.7389 13.9829 16
      vertex -13 14 0
      vertex -12.7389 13.9829 0
    endloop
  endfacet
  facet normal 0.442621 -0.896709 0
    outer loop
      vertex -22 13.732 0
      vertex -21.7654 13.8478 16
      vertex -22 13.732 16
    endloop
  endfacet
  facet normal 0.442621 -0.896709 0
    outer loop
      vertex -21.7654 13.8478 16
      vertex -22 13.732 0
      vertex -21.7654 13.8478 0
    endloop
  endfacet
  facet normal -0.659343 -0.751842 0
    outer loop
      vertex -11.7825 13.5867 0
      vertex -11.5858 13.4142 16
      vertex -11.7825 13.5867 16
    endloop
  endfacet
  facet normal -0.659343 -0.751842 -0
    outer loop
      vertex -11.5858 13.4142 16
      vertex -11.7825 13.5867 0
      vertex -11.5858 13.4142 0
    endloop
  endfacet
  facet normal 0.442314 0.89686 -0
    outer loop
      vertex -21.7654 10.1522 0
      vertex -22 10.2679 16
      vertex -21.7654 10.1522 16
    endloop
  endfacet
  facet normal 0.442314 0.89686 0
    outer loop
      vertex -22 10.2679 16
      vertex -21.7654 10.1522 0
      vertex -22 10.2679 0
    endloop
  endfacet
  facet normal 0.831521 -0.555494 0
    outer loop
      vertex -22.732 13 16
      vertex -22.5867 13.2175 0
      vertex -22.5867 13.2175 16
    endloop
  endfacet
  facet normal 0.831521 -0.555494 0
    outer loop
      vertex -22.5867 13.2175 0
      vertex -22.732 13 16
      vertex -22.732 13 0
    endloop
  endfacet
  facet normal -0.442621 -0.896709 0
    outer loop
      vertex -12.2346 13.8478 0
      vertex -12 13.732 16
      vertex -12.2346 13.8478 16
    endloop
  endfacet
  facet normal -0.442621 -0.896709 -0
    outer loop
      vertex -12 13.732 16
      vertex -12.2346 13.8478 0
      vertex -12 13.732 0
    endloop
  endfacet
  facet normal -0.831344 -0.555758 0
    outer loop
      vertex -11.2679 13 0
      vertex -11.4133 13.2175 16
      vertex -11.4133 13.2175 0
    endloop
  endfacet
  facet normal -0.831344 -0.555758 0
    outer loop
      vertex -11.4133 13.2175 16
      vertex -11.2679 13 0
      vertex -11.2679 13 16
    endloop
  endfacet
  facet normal -0.442314 0.89686 0
    outer loop
      vertex -12 10.2679 0
      vertex -12.2346 10.1522 16
      vertex -12 10.2679 16
    endloop
  endfacet
  facet normal -0.442314 0.89686 0
    outer loop
      vertex -12.2346 10.1522 16
      vertex -12 10.2679 0
      vertex -12.2346 10.1522 0
    endloop
  endfacet
  facet normal 0 1 -0
    outer loop
      vertex -13 10 0
      vertex -21 10 16
      vertex -13 10 16
    endloop
  endfacet
  facet normal 0 1 0
    outer loop
      vertex -21 10 16
      vertex -13 10 0
      vertex -21 10 0
    endloop
  endfacet
  facet normal -0.997862 -0.0653521 0
    outer loop
      vertex -11 12 0
      vertex -11.0171 12.2611 16
      vertex -11.0171 12.2611 0
    endloop
  endfacet
  facet normal -0.997862 -0.0653521 0
    outer loop
      vertex -11.0171 12.2611 16
      vertex -11 12 0
      vertex -11 12 16
    endloop
  endfacet
  facet normal -0.0653521 0.997862 0
    outer loop
      vertex -12.7389 10.0171 0
      vertex -13 10 16
      vertex -12.7389 10.0171 16
    endloop
  endfacet
  facet normal -0.0653521 0.997862 0
    outer loop
      vertex -13 10 16
      vertex -12.7389 10.0171 0
      vertex -13 10 0
    endloop
  endfacet
  facet normal -0.321382 0.94695 0
    outer loop
      vertex -12.2346 10.1522 0
      vertex -12.4824 10.0681 16
      vertex -12.2346 10.1522 16
    endloop
  endfacet
  facet normal -0.321382 0.94695 0
    outer loop
      vertex -12.4824 10.0681 16
      vertex -12.2346 10.1522 0
      vertex -12.4824 10.0681 0
    endloop
  endfacet
  facet normal -0.980801 -0.195013 0
    outer loop
      vertex -11.0171 12.2611 0
      vertex -11.0681 12.5176 16
      vertex -11.0681 12.5176 0
    endloop
  endfacet
  facet normal -0.980801 -0.195013 0
    outer loop
      vertex -11.0681 12.5176 16
      vertex -11.0171 12.2611 0
      vertex -11.0171 12.2611 16
    endloop
  endfacet
  facet normal 0.195013 -0.980801 0
    outer loop
      vertex -21.5176 13.9319 0
      vertex -21.2611 13.9829 16
      vertex -21.5176 13.9319 16
    endloop
  endfacet
  facet normal 0.195013 -0.980801 0
    outer loop
      vertex -21.2611 13.9829 16
      vertex -21.5176 13.9319 0
      vertex -21.2611 13.9829 0
    endloop
  endfacet
  facet normal -0.195013 -0.980801 0
    outer loop
      vertex -12.7389 13.9829 0
      vertex -12.4824 13.9319 16
      vertex -12.7389 13.9829 16
    endloop
  endfacet
  facet normal -0.195013 -0.980801 -0
    outer loop
      vertex -12.4824 13.9319 16
      vertex -12.7389 13.9829 0
      vertex -12.4824 13.9319 0
    endloop
  endfacet
  facet normal 0.980801 -0.195013 0
    outer loop
      vertex -22.9829 12.2611 16
      vertex -22.9319 12.5176 0
      vertex -22.9319 12.5176 16
    endloop
  endfacet
  facet normal 0.980801 -0.195013 0
    outer loop
      vertex -22.9319 12.5176 0
      vertex -22.9829 12.2611 16
      vertex -22.9829 12.2611 0
    endloop
  endfacet
  facet normal 0.997862 -0.0653521 0
    outer loop
      vertex -23 12 16
      vertex -22.9829 12.2611 0
      vertex -22.9829 12.2611 16
    endloop
  endfacet
  facet normal 0.997862 -0.0653521 0
    outer loop
      vertex -22.9829 12.2611 0
      vertex -23 12 16
      vertex -23 12 0
    endloop
  endfacet
  facet normal -0.321382 -0.94695 0
    outer loop
      vertex -12.4824 13.9319 0
      vertex -12.2346 13.8478 16
      vertex -12.4824 13.9319 16
    endloop
  endfacet
  facet normal -0.321382 -0.94695 -0
    outer loop
      vertex -12.2346 13.8478 16
      vertex -12.4824 13.9319 0
      vertex -12.2346 13.8478 0
    endloop
  endfacet
  facet normal -0.751842 -0.659343 0
    outer loop
      vertex -11.4133 13.2175 0
      vertex -11.5858 13.4142 16
      vertex -11.5858 13.4142 0
    endloop
  endfacet
  facet normal -0.751842 -0.659343 0
    outer loop
      vertex -11.5858 13.4142 16
      vertex -11.4133 13.2175 0
      vertex -11.4133 13.2175 16
    endloop
  endfacet
  facet normal -0.195013 0.980801 0
    outer loop
      vertex -12.4824 10.0681 0
      vertex -12.7389 10.0171 16
      vertex -12.4824 10.0681 16
    endloop
  endfacet
  facet normal -0.195013 0.980801 0
    outer loop
      vertex -12.7389 10.0171 16
      vertex -12.4824 10.0681 0
      vertex -12.7389 10.0171 0
    endloop
  endfacet
  facet normal 0.555758 0.831344 -0
    outer loop
      vertex -22 10.2679 0
      vertex -22.2175 10.4133 16
      vertex -22 10.2679 16
    endloop
  endfacet
  facet normal 0.555758 0.831344 0
    outer loop
      vertex -22.2175 10.4133 16
      vertex -22 10.2679 0
      vertex -22.2175 10.4133 0
    endloop
  endfacet
  facet normal -0.659343 0.751842 0
    outer loop
      vertex -11.5858 10.5858 0
      vertex -11.7825 10.4133 16
      vertex -11.5858 10.5858 16
    endloop
  endfacet
  facet normal -0.659343 0.751842 0
    outer loop
      vertex -11.7825 10.4133 16
      vertex -11.5858 10.5858 0
      vertex -11.7825 10.4133 0
    endloop
  endfacet
  facet normal 0.896709 -0.442621 0
    outer loop
      vertex -22.8478 12.7654 16
      vertex -22.732 13 0
      vertex -22.732 13 16
    endloop
  endfacet
  facet normal 0.896709 -0.442621 0
    outer loop
      vertex -22.732 13 0
      vertex -22.8478 12.7654 16
      vertex -22.8478 12.7654 0
    endloop
  endfacet
  facet normal 0.555494 -0.831521 0
    outer loop
      vertex -22.2175 13.5867 0
      vertex -22 13.732 16
      vertex -22.2175 13.5867 16
    endloop
  endfacet
  facet normal 0.555494 -0.831521 0
    outer loop
      vertex -22 13.732 16
      vertex -22.2175 13.5867 0
      vertex -22 13.732 0
    endloop
  endfacet
  facet normal -0.831344 0.555758 0
    outer loop
      vertex -11.4133 10.7825 0
      vertex -11.2679 11 16
      vertex -11.2679 11 0
    endloop
  endfacet
  facet normal -0.831344 0.555758 0
    outer loop
      vertex -11.2679 11 16
      vertex -11.4133 10.7825 0
      vertex -11.4133 10.7825 16
    endloop
  endfacet
  facet normal -0.751842 0.659343 0
    outer loop
      vertex -11.5858 10.5858 0
      vertex -11.4133 10.7825 16
      vertex -11.4133 10.7825 0
    endloop
  endfacet
  facet normal -0.751842 0.659343 0
    outer loop
      vertex -11.4133 10.7825 16
      vertex -11.5858 10.5858 0
      vertex -11.5858 10.5858 16
    endloop
  endfacet
  facet normal -0.89686 -0.442314 0
    outer loop
      vertex -11.1522 12.7654 0
      vertex -11.2679 13 16
      vertex -11.2679 13 0
    endloop
  endfacet
  facet normal -0.89686 -0.442314 0
    outer loop
      vertex -11.2679 13 16
      vertex -11.1522 12.7654 0
      vertex -11.1522 12.7654 16
    endloop
  endfacet
  facet normal 0.659343 0.751842 -0
    outer loop
      vertex -22.2175 10.4133 0
      vertex -22.4142 10.5858 16
      vertex -22.2175 10.4133 16
    endloop
  endfacet
  facet normal 0.659343 0.751842 0
    outer loop
      vertex -22.4142 10.5858 16
      vertex -22.2175 10.4133 0
      vertex -22.4142 10.5858 0
    endloop
  endfacet
  facet normal -0.997862 0.0653521 0
    outer loop
      vertex -11.0171 11.7389 0
      vertex -11 12 16
      vertex -11 12 0
    endloop
  endfacet
  facet normal -0.997862 0.0653521 0
    outer loop
      vertex -11 12 16
      vertex -11.0171 11.7389 0
      vertex -11.0171 11.7389 16
    endloop
  endfacet
  facet normal -0.89686 0.442314 0
    outer loop
      vertex -11.2679 11 0
      vertex -11.1522 11.2346 16
      vertex -11.1522 11.2346 0
    endloop
  endfacet
  facet normal -0.89686 0.442314 0
    outer loop
      vertex -11.1522 11.2346 16
      vertex -11.2679 11 0
      vertex -11.2679 11 16
    endloop
  endfacet
  facet normal 0.831521 0.555494 0
    outer loop
      vertex -22.5867 10.7825 16
      vertex -22.732 11 0
      vertex -22.732 11 16
    endloop
  endfacet
  facet normal 0.831521 0.555494 0
    outer loop
      vertex -22.732 11 0
      vertex -22.5867 10.7825 16
      vertex -22.5867 10.7825 0
    endloop
  endfacet
  facet normal 0.195013 0.980801 -0
    outer loop
      vertex -21.2611 10.0171 0
      vertex -21.5176 10.0681 16
      vertex -21.2611 10.0171 16
    endloop
  endfacet
  facet normal 0.195013 0.980801 0
    outer loop
      vertex -21.5176 10.0681 16
      vertex -21.2611 10.0171 0
      vertex -21.5176 10.0681 0
    endloop
  endfacet
  facet normal 0.321382 0.94695 -0
    outer loop
      vertex -21.5176 10.0681 0
      vertex -21.7654 10.1522 16
      vertex -21.5176 10.0681 16
    endloop
  endfacet
  facet normal 0.321382 0.94695 0
    outer loop
      vertex -21.7654 10.1522 16
      vertex -21.5176 10.0681 0
      vertex -21.7654 10.1522 0
    endloop
  endfacet
  facet normal 0.94695 0.321382 0
    outer loop
      vertex -22.8478 11.2346 16
      vertex -22.9319 11.4824 0
      vertex -22.9319 11.4824 16
    endloop
  endfacet
  facet normal 0.94695 0.321382 0
    outer loop
      vertex -22.9319 11.4824 0
      vertex -22.8478 11.2346 16
      vertex -22.8478 11.2346 0
    endloop
  endfacet
  facet normal 0.980801 0.195013 0
    outer loop
      vertex 11.0681 11.4824 16
      vertex 11.0171 11.7389 0
      vertex 11.0171 11.7389 16
    endloop
  endfacet
  facet normal 0.980801 0.195013 0
    outer loop
      vertex 11.0171 11.7389 0
      vertex 11.0681 11.4824 16
      vertex 11.0681 11.4824 0
    endloop
  endfacet
  facet normal -0.997862 -0.0653521 0
    outer loop
      vertex 23 12 0
      vertex 22.9829 12.2611 16
      vertex 22.9829 12.2611 0
    endloop
  endfacet
  facet normal -0.997862 -0.0653521 0
    outer loop
      vertex 22.9829 12.2611 16
      vertex 23 12 0
      vertex 23 12 16
    endloop
  endfacet
  facet normal 0.997862 0.0653521 0
    outer loop
      vertex 11.0171 11.7389 16
      vertex 11 12 0
      vertex 11 12 16
    endloop
  endfacet
  facet normal 0.997862 0.0653521 0
    outer loop
      vertex 11 12 0
      vertex 11.0171 11.7389 16
      vertex 11.0171 11.7389 0
    endloop
  endfacet
  facet normal -0.0653521 -0.997862 0
    outer loop
      vertex 21 14 0
      vertex 21.2611 13.9829 16
      vertex 21 14 16
    endloop
  endfacet
  facet normal -0.0653521 -0.997862 -0
    outer loop
      vertex 21.2611 13.9829 16
      vertex 21 14 0
      vertex 21.2611 13.9829 0
    endloop
  endfacet
  facet normal 0.321382 -0.94695 0
    outer loop
      vertex 12.2346 13.8478 0
      vertex 12.4824 13.9319 16
      vertex 12.2346 13.8478 16
    endloop
  endfacet
  facet normal 0.321382 -0.94695 0
    outer loop
      vertex 12.4824 13.9319 16
      vertex 12.2346 13.8478 0
      vertex 12.4824 13.9319 0
    endloop
  endfacet
  facet normal 0.831344 -0.555758 0
    outer loop
      vertex 11.2679 13 16
      vertex 11.4133 13.2175 0
      vertex 11.4133 13.2175 16
    endloop
  endfacet
  facet normal 0.831344 -0.555758 0
    outer loop
      vertex 11.4133 13.2175 0
      vertex 11.2679 13 16
      vertex 11.2679 13 0
    endloop
  endfacet
  facet normal -0.195013 0.980801 0
    outer loop
      vertex 21.5176 10.0681 0
      vertex 21.2611 10.0171 16
      vertex 21.5176 10.0681 16
    endloop
  endfacet
  facet normal -0.195013 0.980801 0
    outer loop
      vertex 21.2611 10.0171 16
      vertex 21.5176 10.0681 0
      vertex 21.2611 10.0171 0
    endloop
  endfacet
  facet normal 0.997862 -0.0653521 0
    outer loop
      vertex 11 12 16
      vertex 11.0171 12.2611 0
      vertex 11.0171 12.2611 16
    endloop
  endfacet
  facet normal 0.997862 -0.0653521 0
    outer loop
      vertex 11.0171 12.2611 0
      vertex 11 12 16
      vertex 11 12 0
    endloop
  endfacet
  facet normal -0.94695 0.321382 0
    outer loop
      vertex 22.8478 11.2346 0
      vertex 22.9319 11.4824 16
      vertex 22.9319 11.4824 0
    endloop
  endfacet
  facet normal -0.94695 0.321382 0
    outer loop
      vertex 22.9319 11.4824 16
      vertex 22.8478 11.2346 0
      vertex 22.8478 11.2346 16
    endloop
  endfacet
  facet normal 0 -1 0
    outer loop
      vertex 13 14 0
      vertex 21 14 16
      vertex 13 14 16
    endloop
  endfacet
  facet normal 0 -1 -0
    outer loop
      vertex 21 14 16
      vertex 13 14 0
      vertex 21 14 0
    endloop
  endfacet
  facet normal 0.980801 -0.195013 0
    outer loop
      vertex 11.0171 12.2611 16
      vertex 11.0681 12.5176 0
      vertex 11.0681 12.5176 16
    endloop
  endfacet
  facet normal 0.980801 -0.195013 0
    outer loop
      vertex 11.0681 12.5176 0
      vertex 11.0171 12.2611 16
      vertex 11.0171 12.2611 0
    endloop
  endfacet
  facet normal -0.94695 -0.321382 0
    outer loop
      vertex 22.9319 12.5176 0
      vertex 22.8478 12.7654 16
      vertex 22.8478 12.7654 0
    endloop
  endfacet
  facet normal -0.94695 -0.321382 0
    outer loop
      vertex 22.8478 12.7654 16
      vertex 22.9319 12.5176 0
      vertex 22.9319 12.5176 16
    endloop
  endfacet
  facet normal -0.195013 -0.980801 0
    outer loop
      vertex 21.2611 13.9829 0
      vertex 21.5176 13.9319 16
      vertex 21.2611 13.9829 16
    endloop
  endfacet
  facet normal -0.195013 -0.980801 -0
    outer loop
      vertex 21.5176 13.9319 16
      vertex 21.2611 13.9829 0
      vertex 21.5176 13.9319 0
    endloop
  endfacet
  facet normal -0.555494 -0.831521 0
    outer loop
      vertex 22 13.732 0
      vertex 22.2175 13.5867 16
      vertex 22 13.732 16
    endloop
  endfacet
  facet normal -0.555494 -0.831521 -0
    outer loop
      vertex 22.2175 13.5867 16
      vertex 22 13.732 0
      vertex 22.2175 13.5867 0
    endloop
  endfacet
  facet normal 0.0653521 0.997862 -0
    outer loop
      vertex 13 10 0
      vertex 12.7389 10.0171 16
      vertex 13 10 16
    endloop
  endfacet
  facet normal 0.0653521 0.997862 0
    outer loop
      vertex 12.7389 10.0171 16
      vertex 13 10 0
      vertex 12.7389 10.0171 0
    endloop
  endfacet
  facet normal -0.659343 0.751842 0
    outer loop
      vertex 22.4142 10.5858 0
      vertex 22.2175 10.4133 16
      vertex 22.4142 10.5858 16
    endloop
  endfacet
  facet normal -0.659343 0.751842 0
    outer loop
      vertex 22.2175 10.4133 16
      vertex 22.4142 10.5858 0
      vertex 22.2175 10.4133 0
    endloop
  endfacet
  facet normal 0.195013 -0.980801 0
    outer loop
      vertex 12.4824 13.9319 0
      vertex 12.7389 13.9829 16
      vertex 12.4824 13.9319 16
    endloop
  endfacet
  facet normal 0.195013 -0.980801 0
    outer loop
      vertex 12.7389 13.9829 16
      vertex 12.4824 13.9319 0
      vertex 12.7389 13.9829 0
    endloop
  endfacet
  facet normal 0.94695 -0.321382 0
    outer loop
      vertex 11.0681 12.5176 16
      vertex 11.1522 12.7654 0
      vertex 11.1522 12.7654 16
    endloop
  endfacet
  facet normal 0.94695 -0.321382 0
    outer loop
      vertex 11.1522 12.7654 0
      vertex 11.0681 12.5176 16
      vertex 11.0681 12.5176 0
    endloop
  endfacet
  facet normal -0.0653521 0.997862 0
    outer loop
      vertex 21.2611 10.0171 0
      vertex 21 10 16
      vertex 21.2611 10.0171 16
    endloop
  endfacet
  facet normal -0.0653521 0.997862 0
    outer loop
      vertex 21 10 16
      vertex 21.2611 10.0171 0
      vertex 21 10 0
    endloop
  endfacet
  facet normal 0.442621 -0.896709 0
    outer loop
      vertex 12 13.732 0
      vertex 12.2346 13.8478 16
      vertex 12 13.732 16
    endloop
  endfacet
  facet normal 0.442621 -0.896709 0
    outer loop
      vertex 12.2346 13.8478 16
      vertex 12 13.732 0
      vertex 12.2346 13.8478 0
    endloop
  endfacet
  facet normal 0.442314 0.89686 -0
    outer loop
      vertex 12.2346 10.1522 0
      vertex 12 10.2679 16
      vertex 12.2346 10.1522 16
    endloop
  endfacet
  facet normal 0.442314 0.89686 0
    outer loop
      vertex 12 10.2679 16
      vertex 12.2346 10.1522 0
      vertex 12 10.2679 0
    endloop
  endfacet
  facet normal -0.751842 -0.659343 0
    outer loop
      vertex 22.5867 13.2175 0
      vertex 22.4142 13.4142 16
      vertex 22.4142 13.4142 0
    endloop
  endfacet
  facet normal -0.751842 -0.659343 0
    outer loop
      vertex 22.4142 13.4142 16
      vertex 22.5867 13.2175 0
      vertex 22.5867 13.2175 16
    endloop
  endfacet
  facet normal -0.831521 -0.555494 0
    outer loop
      vertex 22.732 13 0
      vertex 22.5867 13.2175 16
      vertex 22.5867 13.2175 0
    endloop
  endfacet
  facet normal -0.831521 -0.555494 0
    outer loop
      vertex 22.5867 13.2175 16
      vertex 22.732 13 0
      vertex 22.732 13 16
    endloop
  endfacet
  facet normal 0.659343 0.751842 -0
    outer loop
      vertex 11.7825 10.4133 0
      vertex 11.5858 10.5858 16
      vertex 11.7825 10.4133 16
    endloop
  endfacet
  facet normal 0.659343 0.751842 0
    outer loop
      vertex 11.5858 10.5858 16
      vertex 11.7825 10.4133 0
      vertex 11.5858 10.5858 0
    endloop
  endfacet
  facet normal -0.555758 0.831344 0
    outer loop
      vertex 22.2175 10.4133 0
      vertex 22 10.2679 16
      vertex 22.2175 10.4133 16
    endloop
  endfacet
  facet normal -0.555758 0.831344 0
    outer loop
      vertex 22 10.2679 16
      vertex 22.2175 10.4133 0
      vertex 22 10.2679 0
    endloop
  endfacet
  facet normal 0.659343 -0.751842 0
    outer loop
      vertex 11.5858 13.4142 0
      vertex 11.7825 13.5867 16
      vertex 11.5858 13.4142 16
    endloop
  endfacet
  facet normal 0.659343 -0.751842 0
    outer loop
      vertex 11.7825 13.5867 16
      vertex 11.5858 13.4142 0
      vertex 11.7825 13.5867 0
    endloop
  endfacet
  facet normal -0.442314 0.89686 0
    outer loop
      vertex 22 10.2679 0
      vertex 21.7654 10.1522 16
      vertex 22 10.2679 16
    endloop
  endfacet
  facet normal -0.442314 0.89686 0
    outer loop
      vertex 21.7654 10.1522 16
      vertex 22 10.2679 0
      vertex 21.7654 10.1522 0
    endloop
  endfacet
  facet normal 0.751842 -0.659343 0
    outer loop
      vertex 11.4133 13.2175 16
      vertex 11.5858 13.4142 0
      vertex 11.5858 13.4142 16
    endloop
  endfacet
  facet normal 0.751842 -0.659343 0
    outer loop
      vertex 11.5858 13.4142 0
      vertex 11.4133 13.2175 16
      vertex 11.4133 13.2175 0
    endloop
  endfacet
  facet normal 0 1 -0
    outer loop
      vertex 21 10 0
      vertex 13 10 16
      vertex 21 10 16
    endloop
  endfacet
  facet normal 0 1 0
    outer loop
      vertex 13 10 16
      vertex 21 10 0
      vertex 13 10 0
    endloop
  endfacet
  facet normal 0.321382 0.94695 -0
    outer loop
      vertex 12.4824 10.0681 0
      vertex 12.2346 10.1522 16
      vertex 12.4824 10.0681 16
    endloop
  endfacet
  facet normal 0.321382 0.94695 0
    outer loop
      vertex 12.2346 10.1522 16
      vertex 12.4824 10.0681 0
      vertex 12.2346 10.1522 0
    endloop
  endfacet
  facet normal 0.89686 0.442314 0
    outer loop
      vertex 11.2679 11 16
      vertex 11.1522 11.2346 0
      vertex 11.1522 11.2346 16
    endloop
  endfacet
  facet normal 0.89686 0.442314 0
    outer loop
      vertex 11.1522 11.2346 0
      vertex 11.2679 11 16
      vertex 11.2679 11 0
    endloop
  endfacet
  facet normal -0.980801 -0.195013 0
    outer loop
      vertex 22.9829 12.2611 0
      vertex 22.9319 12.5176 16
      vertex 22.9319 12.5176 0
    endloop
  endfacet
  facet normal -0.980801 -0.195013 0
    outer loop
      vertex 22.9319 12.5176 16
      vertex 22.9829 12.2611 0
      vertex 22.9829 12.2611 16
    endloop
  endfacet
  facet normal 0.0653521 -0.997862 0
    outer loop
      vertex 12.7389 13.9829 0
      vertex 13 14 16
      vertex 12.7389 13.9829 16
    endloop
  endfacet
  facet normal 0.0653521 -0.997862 0
    outer loop
      vertex 13 14 16
      vertex 12.7389 13.9829 0
      vertex 13 14 0
    endloop
  endfacet
  facet normal -0.321382 0.94695 0
    outer loop
      vertex 21.7654 10.1522 0
      vertex 21.5176 10.0681 16
      vertex 21.7654 10.1522 16
    endloop
  endfacet
  facet normal -0.321382 0.94695 0
    outer loop
      vertex 21.5176 10.0681 16
      vertex 21.7654 10.1522 0
      vertex 21.5176 10.0681 0
    endloop
  endfacet
  facet normal -0.659343 -0.751842 0
    outer loop
      vertex 22.2175 13.5867 0
      vertex 22.4142 13.4142 16
      vertex 22.2175 13.5867 16
    endloop
  endfacet
  facet normal -0.659343 -0.751842 -0
    outer loop
      vertex 22.4142 13.4142 16
      vertex 22.2175 13.5867 0
      vertex 22.4142 13.4142 0
    endloop
  endfacet
  facet normal -0.997862 0.0653521 0
    outer loop
      vertex 22.9829 11.7389 0
      vertex 23 12 16
      vertex 23 12 0
    endloop
  endfacet
  facet normal -0.997862 0.0653521 0
    outer loop
      vertex 23 12 16
      vertex 22.9829 11.7389 0
      vertex 22.9829 11.7389 16
    endloop
  endfacet
  facet normal -0.980801 0.195013 0
    outer loop
      vertex 22.9319 11.4824 0
      vertex 22.9829 11.7389 16
      vertex 22.9829 11.7389 0
    endloop
  endfacet
  facet normal -0.980801 0.195013 0
    outer loop
      vertex 22.9829 11.7389 16
      vertex 22.9319 11.4824 0
      vertex 22.9319 11.4824 16
    endloop
  endfacet
  facet normal 0.89686 -0.442314 0
    outer loop
      vertex 11.1522 12.7654 16
      vertex 11.2679 13 0
      vertex 11.2679 13 16
    endloop
  endfacet
  facet normal 0.89686 -0.442314 0
    outer loop
      vertex 11.2679 13 0
      vertex 11.1522 12.7654 16
      vertex 11.1522 12.7654 0
    endloop
  endfacet
  facet normal -0.896709 0.442621 0
    outer loop
      vertex 22.732 11 0
      vertex 22.8478 11.2346 16
      vertex 22.8478 11.2346 0
    endloop
  endfacet
  facet normal -0.896709 0.442621 0
    outer loop
      vertex 22.8478 11.2346 16
      vertex 22.732 11 0
      vertex 22.732 11 16
    endloop
  endfacet
  facet normal -0.831521 0.555494 0
    outer loop
      vertex 22.5867 10.7825 0
      vertex 22.732 11 16
      vertex 22.732 11 0
    endloop
  endfacet
  facet normal -0.831521 0.555494 0
    outer loop
      vertex 22.732 11 16
      vertex 22.5867 10.7825 0
      vertex 22.5867 10.7825 16
    endloop
  endfacet
  facet normal 0.555494 -0.831521 0
    outer loop
      vertex 11.7825 13.5867 0
      vertex 12 13.732 16
      vertex 11.7825 13.5867 16
    endloop
  endfacet
  facet normal 0.555494 -0.831521 0
    outer loop
      vertex 12 13.732 16
      vertex 11.7825 13.5867 0
      vertex 12 13.732 0
    endloop
  endfacet
  facet normal 0.555758 0.831344 -0
    outer loop
      vertex 12 10.2679 0
      vertex 11.7825 10.4133 16
      vertex 12 10.2679 16
    endloop
  endfacet
  facet normal 0.555758 0.831344 0
    outer loop
      vertex 11.7825 10.4133 16
      vertex 12 10.2679 0
      vertex 11.7825 10.4133 0
    endloop
  endfacet
  facet normal -0.321382 -0.94695 0
    outer loop
      vertex 21.5176 13.9319 0
      vertex 21.7654 13.8478 16
      vertex 21.5176 13.9319 16
    endloop
  endfacet
  facet normal -0.321382 -0.94695 -0
    outer loop
      vertex 21.7654 13.8478 16
      vertex 21.5176 13.9319 0
      vertex 21.7654 13.8478 0
    endloop
  endfacet
  facet normal -0.896709 -0.442621 0
    outer loop
      vertex 22.8478 12.7654 0
      vertex 22.732 13 16
      vertex 22.732 13 0
    endloop
  endfacet
  facet normal -0.896709 -0.442621 0
    outer loop
      vertex 22.732 13 16
      vertex 22.8478 12.7654 0
      vertex 22.8478 12.7654 16
    endloop
  endfacet
  facet normal -0.442621 -0.896709 0
    outer loop
      vertex 21.7654 13.8478 0
      vertex 22 13.732 16
      vertex 21.7654 13.8478 16
    endloop
  endfacet
  facet normal -0.442621 -0.896709 -0
    outer loop
      vertex 22 13.732 16
      vertex 21.7654 13.8478 0
      vertex 22 13.732 0
    endloop
  endfacet
  facet normal 0.751842 0.659343 0
    outer loop
      vertex 11.5858 10.5858 16
      vertex 11.4133 10.7825 0
      vertex 11.4133 10.7825 16
    endloop
  endfacet
  facet normal 0.751842 0.659343 0
    outer loop
      vertex 11.4133 10.7825 0
      vertex 11.5858 10.5858 16
      vertex 11.5858 10.5858 0
    endloop
  endfacet
  facet normal 0.831344 0.555758 0
    outer loop
      vertex 11.4133 10.7825 16
      vertex 11.2679 11 0
      vertex 11.2679 11 16
    endloop
  endfacet
  facet normal 0.831344 0.555758 0
    outer loop
      vertex 11.2679 11 0
      vertex 11.4133 10.7825 16
      vertex 11.4133 10.7825 0
    endloop
  endfacet
  facet normal -0.751842 0.659343 0
    outer loop
      vertex 22.4142 10.5858 0
      vertex 22.5867 10.7825 16
      vertex 22.5867 10.7825 0
    endloop
  endfacet
  facet normal -0.751842 0.659343 0
    outer loop
      vertex 22.5867 10.7825 16
      vertex 22.4142 10.5858 0
      vertex 22.4142 10.5858 16
    endloop
  endfacet
  facet normal 0.195013 0.980801 -0
    outer loop
      vertex 12.7389 10.0171 0
      vertex 12.4824 10.0681 16
      vertex 12.7389 10.0171 16
    endloop
  endfacet
  facet normal 0.195013 0.980801 0
    outer loop
      vertex 12.4824 10.0681 16
      vertex 12.7389 10.0171 0
      vertex 12.4824 10.0681 0
    endloop
  endfacet
  facet normal 0.94695 0.321382 0
    outer loop
      vertex 11.1522 11.2346 16
      vertex 11.0681 11.4824 0
      vertex 11.0681 11.4824 16
    endloop
  endfacet
  facet normal 0.94695 0.321382 0
    outer loop
      vertex 11.0681 11.4824 0
      vertex 11.1522 11.2346 16
      vertex 11.1522 11.2346 0
    endloop
  endfacet
  facet normal 0.0653646 -0.997861 0
    outer loop
      vertex 23 -23 0
      vertex 23.5221 -22.9658 16
      vertex 23 -23 16
    endloop
  endfacet
  facet normal 0.0653646 -0.997861 0
    outer loop
      vertex 23.5221 -22.9658 16
      vertex 23 -23 0
      vertex 23.5221 -22.9658 0
    endloop
  endfacet
  facet normal 0.321498 -0.94691 0
    outer loop
      vertex 24.0353 -22.8637 0
      vertex 24.5307 -22.6955 16
      vertex 24.0353 -22.8637 16
    endloop
  endfacet
  facet normal 0.321498 -0.94691 0
    outer loop
      vertex 24.5307 -22.6955 16
      vertex 24.0353 -22.8637 0
      vertex 24.5307 -22.6955 0
    endloop
  endfacet
  facet normal 0 -1 0
    outer loop
      vertex -23 -23 0
      vertex 23 -23 16
      vertex -23 -23 16
    endloop
  endfacet
  facet normal 0 -1 -0
    outer loop
      vertex 23 -23 16
      vertex -23 -23 0
      vertex 23 -23 0
    endloop
  endfacet
  facet normal 0.195124 -0.980779 0
    outer loop
      vertex 23.5221 -22.9658 0
      vertex 24.0353 -22.8637 16
      vertex 23.5221 -22.9658 16
    endloop
  endfacet
  facet normal 0.195124 -0.980779 0
    outer loop
      vertex 24.0353 -22.8637 16
      vertex 23.5221 -22.9658 0
      vertex 24.0353 -22.8637 0
    endloop
  endfacet
  facet normal -1 0 0
    outer loop
      vertex -27 19 0
      vertex -27 4.85478 5.74149
      vertex -27 19 16
    endloop
  endfacet
  facet normal -1 0 0
    outer loop
      vertex -27 19 0
      vertex -27 0.550927 4.82668
      vertex -27 4.85478 5.74149
    endloop
  endfacet
  facet normal -1 0 0
    outer loop
      vertex -27 -19 0
      vertex -27 0.550927 4.82668
      vertex -27 19 0
    endloop
  endfacet
  facet normal -1 0 0
    outer loop
      vertex -27 -19 16
      vertex -27 0.550927 4.82668
      vertex -27 -19 0
    endloop
  endfacet
  facet normal -1 0 0
    outer loop
      vertex -27 0.550927 4.82668
      vertex -27 -19 16
      vertex -27 -1.82404 16
    endloop
  endfacet
  facet normal -1 -0 0
    outer loop
      vertex -27 19 16
      vertex -27 4.85478 5.74149
      vertex -27 2.67426 16
    endloop
  endfacet
  facet normal 0.980779 0.195124 0
    outer loop
      vertex 26.9658 19.5221 16
      vertex 26.8637 20.0353 0
      vertex 26.8637 20.0353 16
    endloop
  endfacet
  facet normal 0.980779 0.195124 0
    outer loop
      vertex 26.8637 20.0353 0
      vertex 26.9658 19.5221 16
      vertex 26.9658 19.5221 0
    endloop
  endfacet
  facet normal 1 0 0
    outer loop
      vertex 27 19 16
      vertex 27 4.85478 5.74149
      vertex 27 19 0
    endloop
  endfacet
  facet normal 1 0 -0
    outer loop
      vertex 27 4.85478 5.74149
      vertex 27 19 16
      vertex 27 2.67426 16
    endloop
  endfacet
  facet normal 1 -0 0
    outer loop
      vertex 27 0.550927 4.82668
      vertex 27 19 0
      vertex 27 4.85478 5.74149
    endloop
  endfacet
  facet normal 1 -0 0
    outer loop
      vertex 27 -19 16
      vertex 27 0.550927 4.82668
      vertex 27 -1.82404 16
    endloop
  endfacet
  facet normal 1 0 0
    outer loop
      vertex 27 0.550927 4.82668
      vertex 27 -19 0
      vertex 27 19 0
    endloop
  endfacet
  facet normal 1 0 0
    outer loop
      vertex 27 -19 0
      vertex 27 0.550927 4.82668
      vertex 27 -19 16
    endloop
  endfacet
  facet normal -0.751842 -0.659343 0
    outer loop
      vertex -25.8284 -21.8284 0
      vertex -26.1734 -21.435 16
      vertex -26.1734 -21.435 0
    endloop
  endfacet
  facet normal -0.751842 -0.659343 0
    outer loop
      vertex -26.1734 -21.435 16
      vertex -25.8284 -21.8284 0
      vertex -25.8284 -21.8284 16
    endloop
  endfacet
  facet normal -0.321498 -0.94691 0
    outer loop
      vertex -24.5307 -22.6955 0
      vertex -24.0353 -22.8637 16
      vertex -24.5307 -22.6955 16
    endloop
  endfacet
  facet normal -0.321498 -0.94691 -0
    outer loop
      vertex -24.0353 -22.8637 16
      vertex -24.5307 -22.6955 0
      vertex -24.0353 -22.8637 0
    endloop
  endfacet
  facet normal -0.997861 0.0653646 0
    outer loop
      vertex -27 19 0
      vertex -26.9658 19.5221 16
      vertex -26.9658 19.5221 0
    endloop
  endfacet
  facet normal -0.997861 0.0653646 0
    outer loop
      vertex -26.9658 19.5221 16
      vertex -27 19 0
      vertex -27 19 16
    endloop
  endfacet
  facet normal 0 1 -0
    outer loop
      vertex 23 23 0
      vertex -23 23 16
      vertex 23 23 16
    endloop
  endfacet
  facet normal 0 1 0
    outer loop
      vertex -23 23 16
      vertex 23 23 0
      vertex -23 23 0
    endloop
  endfacet
  facet normal 0.831432 -0.555626 0
    outer loop
      vertex 26.1734 -21.435 16
      vertex 26.4641 -21 0
      vertex 26.4641 -21 16
    endloop
  endfacet
  facet normal 0.831432 -0.555626 0
    outer loop
      vertex 26.4641 -21 0
      vertex 26.1734 -21.435 16
      vertex 26.1734 -21.435 0
    endloop
  endfacet
  facet normal -0.94691 0.321498 0
    outer loop
      vertex -26.8637 20.0353 0
      vertex -26.6955 20.5307 16
      vertex -26.6955 20.5307 0
    endloop
  endfacet
  facet normal -0.94691 0.321498 0
    outer loop
      vertex -26.6955 20.5307 16
      vertex -26.8637 20.0353 0
      vertex -26.8637 20.0353 16
    endloop
  endfacet
  facet normal 0.0653646 0.997861 -0
    outer loop
      vertex 23.5221 22.9658 0
      vertex 23 23 16
      vertex 23.5221 22.9658 16
    endloop
  endfacet
  facet normal 0.0653646 0.997861 0
    outer loop
      vertex 23 23 16
      vertex 23.5221 22.9658 0
      vertex 23 23 0
    endloop
  endfacet
  facet normal 0.442238 0.896898 -0
    outer loop
      vertex 25 22.4641 0
      vertex 24.5307 22.6955 16
      vertex 25 22.4641 16
    endloop
  endfacet
  facet normal 0.442238 0.896898 0
    outer loop
      vertex 24.5307 22.6955 16
      vertex 25 22.4641 0
      vertex 24.5307 22.6955 0
    endloop
  endfacet
  facet normal 0.751842 -0.659343 0
    outer loop
      vertex 25.8284 -21.8284 16
      vertex 26.1734 -21.435 0
      vertex 26.1734 -21.435 16
    endloop
  endfacet
  facet normal 0.751842 -0.659343 0
    outer loop
      vertex 26.1734 -21.435 0
      vertex 25.8284 -21.8284 16
      vertex 25.8284 -21.8284 0
    endloop
  endfacet
  facet normal -0.195124 0.980779 0
    outer loop
      vertex -23.5221 22.9658 0
      vertex -24.0353 22.8637 16
      vertex -23.5221 22.9658 16
    endloop
  endfacet
  facet normal -0.195124 0.980779 0
    outer loop
      vertex -24.0353 22.8637 16
      vertex -23.5221 22.9658 0
      vertex -24.0353 22.8637 0
    endloop
  endfacet
  facet normal -0.896898 0.442238 0
    outer loop
      vertex -26.6955 20.5307 0
      vertex -26.4641 21 16
      vertex -26.4641 21 0
    endloop
  endfacet
  facet normal -0.896898 0.442238 0
    outer loop
      vertex -26.4641 21 16
      vertex -26.6955 20.5307 0
      vertex -26.6955 20.5307 16
    endloop
  endfacet
  facet normal 0.442238 -0.896898 0
    outer loop
      vertex 24.5307 -22.6955 0
      vertex 25 -22.4641 16
      vertex 24.5307 -22.6955 16
    endloop
  endfacet
  facet normal 0.442238 -0.896898 0
    outer loop
      vertex 25 -22.4641 16
      vertex 24.5307 -22.6955 0
      vertex 25 -22.4641 0
    endloop
  endfacet
  facet normal -0.659343 -0.751842 0
    outer loop
      vertex -25.8284 -21.8284 0
      vertex -25.435 -22.1734 16
      vertex -25.8284 -21.8284 16
    endloop
  endfacet
  facet normal -0.659343 -0.751842 -0
    outer loop
      vertex -25.435 -22.1734 16
      vertex -25.8284 -21.8284 0
      vertex -25.435 -22.1734 0
    endloop
  endfacet
  facet normal -0.997861 -0.0653646 0
    outer loop
      vertex -26.9658 -19.5221 0
      vertex -27 -19 16
      vertex -27 -19 0
    endloop
  endfacet
  facet normal -0.997861 -0.0653646 0
    outer loop
      vertex -27 -19 16
      vertex -26.9658 -19.5221 0
      vertex -26.9658 -19.5221 16
    endloop
  endfacet
  facet normal 0.555626 -0.831432 0
    outer loop
      vertex 25 -22.4641 0
      vertex 25.435 -22.1734 16
      vertex 25 -22.4641 16
    endloop
  endfacet
  facet normal 0.555626 -0.831432 0
    outer loop
      vertex 25.435 -22.1734 16
      vertex 25 -22.4641 0
      vertex 25.435 -22.1734 0
    endloop
  endfacet
  facet normal -0.555626 0.831432 0
    outer loop
      vertex -25 22.4641 0
      vertex -25.435 22.1734 16
      vertex -25 22.4641 16
    endloop
  endfacet
  facet normal -0.555626 0.831432 0
    outer loop
      vertex -25.435 22.1734 16
      vertex -25 22.4641 0
      vertex -25.435 22.1734 0
    endloop
  endfacet
  facet normal 0.555626 0.831432 -0
    outer loop
      vertex 25.435 22.1734 0
      vertex 25 22.4641 16
      vertex 25.435 22.1734 16
    endloop
  endfacet
  facet normal 0.555626 0.831432 0
    outer loop
      vertex 25 22.4641 16
      vertex 25.435 22.1734 0
      vertex 25 22.4641 0
    endloop
  endfacet
  facet normal -0.659343 0.751842 0
    outer loop
      vertex -25.435 22.1734 0
      vertex -25.8284 21.8284 16
      vertex -25.435 22.1734 16
    endloop
  endfacet
  facet normal -0.659343 0.751842 0
    outer loop
      vertex -25.8284 21.8284 16
      vertex -25.435 22.1734 0
      vertex -25.8284 21.8284 0
    endloop
  endfacet
  facet normal 0.659343 -0.751842 0
    outer loop
      vertex 25.435 -22.1734 0
      vertex 25.8284 -21.8284 16
      vertex 25.435 -22.1734 16
    endloop
  endfacet
  facet normal 0.659343 -0.751842 0
    outer loop
      vertex 25.8284 -21.8284 16
      vertex 25.435 -22.1734 0
      vertex 25.8284 -21.8284 0
    endloop
  endfacet
  facet normal -0.980779 -0.195124 0
    outer loop
      vertex -26.8637 -20.0353 0
      vertex -26.9658 -19.5221 16
      vertex -26.9658 -19.5221 0
    endloop
  endfacet
  facet normal -0.980779 -0.195124 0
    outer loop
      vertex -26.9658 -19.5221 16
      vertex -26.8637 -20.0353 0
      vertex -26.8637 -20.0353 16
    endloop
  endfacet
  facet normal -0.0653646 0.997861 0
    outer loop
      vertex -23 23 0
      vertex -23.5221 22.9658 16
      vertex -23 23 16
    endloop
  endfacet
  facet normal -0.0653646 0.997861 0
    outer loop
      vertex -23.5221 22.9658 16
      vertex -23 23 0
      vertex -23.5221 22.9658 0
    endloop
  endfacet
  facet normal -0.0653646 -0.997861 0
    outer loop
      vertex -23.5221 -22.9658 0
      vertex -23 -23 16
      vertex -23.5221 -22.9658 16
    endloop
  endfacet
  facet normal -0.0653646 -0.997861 -0
    outer loop
      vertex -23 -23 16
      vertex -23.5221 -22.9658 0
      vertex -23 -23 0
    endloop
  endfacet
  facet normal 0.896898 -0.442238 0
    outer loop
      vertex 26.4641 -21 16
      vertex 26.6955 -20.5307 0
      vertex 26.6955 -20.5307 16
    endloop
  endfacet
  facet normal 0.896898 -0.442238 0
    outer loop
      vertex 26.6955 -20.5307 0
      vertex 26.4641 -21 16
      vertex 26.4641 -21 0
    endloop
  endfacet
  facet normal 0.94691 -0.321498 0
    outer loop
      vertex 26.6955 -20.5307 16
      vertex 26.8637 -20.0353 0
      vertex 26.8637 -20.0353 16
    endloop
  endfacet
  facet normal 0.94691 -0.321498 0
    outer loop
      vertex 26.8637 -20.0353 0
      vertex 26.6955 -20.5307 16
      vertex 26.6955 -20.5307 0
    endloop
  endfacet
  facet normal -0.321498 0.94691 0
    outer loop
      vertex -24.0353 22.8637 0
      vertex -24.5307 22.6955 16
      vertex -24.0353 22.8637 16
    endloop
  endfacet
  facet normal -0.321498 0.94691 0
    outer loop
      vertex -24.5307 22.6955 16
      vertex -24.0353 22.8637 0
      vertex -24.5307 22.6955 0
    endloop
  endfacet
  facet normal 0.896898 0.442238 0
    outer loop
      vertex 26.6955 20.5307 16
      vertex 26.4641 21 0
      vertex 26.4641 21 16
    endloop
  endfacet
  facet normal 0.896898 0.442238 0
    outer loop
      vertex 26.4641 21 0
      vertex 26.6955 20.5307 16
      vertex 26.6955 20.5307 0
    endloop
  endfacet
  facet normal 0.831432 0.555626 0
    outer loop
      vertex 26.4641 21 16
      vertex 26.1734 21.435 0
      vertex 26.1734 21.435 16
    endloop
  endfacet
  facet normal 0.831432 0.555626 0
    outer loop
      vertex 26.1734 21.435 0
      vertex 26.4641 21 16
      vertex 26.4641 21 0
    endloop
  endfacet
  facet normal -0.442238 -0.896898 0
    outer loop
      vertex -25 -22.4641 0
      vertex -24.5307 -22.6955 16
      vertex -25 -22.4641 16
    endloop
  endfacet
  facet normal -0.442238 -0.896898 -0
    outer loop
      vertex -24.5307 -22.6955 16
      vertex -25 -22.4641 0
      vertex -24.5307 -22.6955 0
    endloop
  endfacet
  facet normal -0.555626 -0.831432 0
    outer loop
      vertex -25.435 -22.1734 0
      vertex -25 -22.4641 16
      vertex -25.435 -22.1734 16
    endloop
  endfacet
  facet normal -0.555626 -0.831432 -0
    outer loop
      vertex -25 -22.4641 16
      vertex -25.435 -22.1734 0
      vertex -25 -22.4641 0
    endloop
  endfacet
  facet normal -0.980779 0.195124 0
    outer loop
      vertex -26.9658 19.5221 0
      vertex -26.8637 20.0353 16
      vertex -26.8637 20.0353 0
    endloop
  endfacet
  facet normal -0.980779 0.195124 0
    outer loop
      vertex -26.8637 20.0353 16
      vertex -26.9658 19.5221 0
      vertex -26.9658 19.5221 16
    endloop
  endfacet
  facet normal -0.831432 0.555626 0
    outer loop
      vertex -26.4641 21 0
      vertex -26.1734 21.435 16
      vertex -26.1734 21.435 0
    endloop
  endfacet
  facet normal -0.831432 0.555626 0
    outer loop
      vertex -26.1734 21.435 16
      vertex -26.4641 21 0
      vertex -26.4641 21 16
    endloop
  endfacet
  facet normal 0.997861 0.0653646 0
    outer loop
      vertex 27 19 16
      vertex 26.9658 19.5221 0
      vertex 26.9658 19.5221 16
    endloop
  endfacet
  facet normal 0.997861 0.0653646 0
    outer loop
      vertex 26.9658 19.5221 0
      vertex 27 19 16
      vertex 27 19 0
    endloop
  endfacet
  facet normal -0.442238 0.896898 0
    outer loop
      vertex -24.5307 22.6955 0
      vertex -25 22.4641 16
      vertex -24.5307 22.6955 16
    endloop
  endfacet
  facet normal -0.442238 0.896898 0
    outer loop
      vertex -25 22.4641 16
      vertex -24.5307 22.6955 0
      vertex -25 22.4641 0
    endloop
  endfacet
  facet normal -0.94691 -0.321498 0
    outer loop
      vertex -26.6955 -20.5307 0
      vertex -26.8637 -20.0353 16
      vertex -26.8637 -20.0353 0
    endloop
  endfacet
  facet normal -0.94691 -0.321498 0
    outer loop
      vertex -26.8637 -20.0353 16
      vertex -26.6955 -20.5307 0
      vertex -26.6955 -20.5307 16
    endloop
  endfacet
  facet normal 0.751842 0.659343 0
    outer loop
      vertex 26.1734 21.435 16
      vertex 25.8284 21.8284 0
      vertex 25.8284 21.8284 16
    endloop
  endfacet
  facet normal 0.751842 0.659343 0
    outer loop
      vertex 25.8284 21.8284 0
      vertex 26.1734 21.435 16
      vertex 26.1734 21.435 0
    endloop
  endfacet
  facet normal 0.94691 0.321498 0
    outer loop
      vertex 26.8637 20.0353 16
      vertex 26.6955 20.5307 0
      vertex 26.6955 20.5307 16
    endloop
  endfacet
  facet normal 0.94691 0.321498 0
    outer loop
      vertex 26.6955 20.5307 0
      vertex 26.8637 20.0353 16
      vertex 26.8637 20.0353 0
    endloop
  endfacet
  facet normal 0.321498 0.94691 -0
    outer loop
      vertex 24.5307 22.6955 0
      vertex 24.0353 22.8637 16
      vertex 24.5307 22.6955 16
    endloop
  endfacet
  facet normal 0.321498 0.94691 0
    outer loop
      vertex 24.0353 22.8637 16
      vertex 24.5307 22.6955 0
      vertex 24.0353 22.8637 0
    endloop
  endfacet
  facet normal 0.659343 0.751842 -0
    outer loop
      vertex 25.8284 21.8284 0
      vertex 25.435 22.1734 16
      vertex 25.8284 21.8284 16
    endloop
  endfacet
  facet normal 0.659343 0.751842 0
    outer loop
      vertex 25.435 22.1734 16
      vertex 25.8284 21.8284 0
      vertex 25.435 22.1734 0
    endloop
  endfacet
  facet normal -0.751842 0.659343 0
    outer loop
      vertex -26.1734 21.435 0
      vertex -25.8284 21.8284 16
      vertex -25.8284 21.8284 0
    endloop
  endfacet
  facet normal -0.751842 0.659343 0
    outer loop
      vertex -25.8284 21.8284 16
      vertex -26.1734 21.435 0
      vertex -26.1734 21.435 16
    endloop
  endfacet
  facet normal -0.831432 -0.555626 0
    outer loop
      vertex -26.1734 -21.435 0
      vertex -26.4641 -21 16
      vertex -26.4641 -21 0
    endloop
  endfacet
  facet normal -0.831432 -0.555626 0
    outer loop
      vertex -26.4641 -21 16
      vertex -26.1734 -21.435 0
      vertex -26.1734 -21.435 16
    endloop
  endfacet
  facet normal -0.195124 -0.980779 0
    outer loop
      vertex -24.0353 -22.8637 0
      vertex -23.5221 -22.9658 16
      vertex -24.0353 -22.8637 16
    endloop
  endfacet
  facet normal -0.195124 -0.980779 -0
    outer loop
      vertex -23.5221 -22.9658 16
      vertex -24.0353 -22.8637 0
      vertex -23.5221 -22.9658 0
    endloop
  endfacet
  facet normal 0.997861 -0.0653646 0
    outer loop
      vertex 26.9658 -19.5221 16
      vertex 27 -19 0
      vertex 27 -19 16
    endloop
  endfacet
  facet normal 0.997861 -0.0653646 0
    outer loop
      vertex 27 -19 0
      vertex 26.9658 -19.5221 16
      vertex 26.9658 -19.5221 0
    endloop
  endfacet
  facet normal -0.896898 -0.442238 0
    outer loop
      vertex -26.4641 -21 0
      vertex -26.6955 -20.5307 16
      vertex -26.6955 -20.5307 0
    endloop
  endfacet
  facet normal -0.896898 -0.442238 0
    outer loop
      vertex -26.6955 -20.5307 16
      vertex -26.4641 -21 0
      vertex -26.4641 -21 16
    endloop
  endfacet
  facet normal 0.980779 -0.195124 0
    outer loop
      vertex 26.8637 -20.0353 16
      vertex 26.9658 -19.5221 0
      vertex 26.9658 -19.5221 16
    endloop
  endfacet
  facet normal 0.980779 -0.195124 0
    outer loop
      vertex 26.9658 -19.5221 0
      vertex 26.8637 -20.0353 16
      vertex 26.8637 -20.0353 0
    endloop
  endfacet
  facet normal 0.195124 0.980779 -0
    outer loop
      vertex 24.0353 22.8637 0
      vertex 23.5221 22.9658 16
      vertex 24.0353 22.8637 16
    endloop
  endfacet
  facet normal 0.195124 0.980779 0
    outer loop
      vertex 23.5221 22.9658 16
      vertex 24.0353 22.8637 0
      vertex 23.5221 22.9658 0
    endloop
  endfacet
  facet normal 0 0 -1
    outer loop
      vertex 27 19 0
      vertex 22.9829 11.7389 0
      vertex 23 12 0
    endloop
  endfacet
  facet normal 0 0 -1
    outer loop
      vertex 27 -19 0
      vertex 22.9319 11.4824 0
      vertex 22.9829 11.7389 0
    endloop
  endfacet
  facet normal 0 0 -1
    outer loop
      vertex 27 -19 0
      vertex 22.8478 11.2346 0
      vertex 22.9319 11.4824 0
    endloop
  endfacet
  facet normal 0 0 -1
    outer loop
      vertex 27 -19 0
      vertex 22.732 11 0
      vertex 22.8478 11.2346 0
    endloop
  endfacet
  facet normal 0 0 -1
    outer loop
      vertex 27 -19 0
      vertex 22.5867 10.7825 0
      vertex 22.732 11 0
    endloop
  endfacet
  facet normal 0 0 -1
    outer loop
      vertex 27 -19 0
      vertex 22.4142 10.5858 0
      vertex 22.5867 10.7825 0
    endloop
  endfacet
  facet normal 0 0 -1
    outer loop
      vertex 27 -19 0
      vertex 22.2175 10.4133 0
      vertex 22.4142 10.5858 0
    endloop
  endfacet
  facet normal 0 0 -1
    outer loop
      vertex 27 -19 0
      vertex 22 10.2679 0
      vertex 22.2175 10.4133 0
    endloop
  endfacet
  facet normal 0 0 -1
    outer loop
      vertex 27 -19 0
      vertex 21.7654 10.1522 0
      vertex 22 10.2679 0
    endloop
  endfacet
  facet normal 0 0 -1
    outer loop
      vertex 27 -19 0
      vertex 21.5176 10.0681 0
      vertex 21.7654 10.1522 0
    endloop
  endfacet
  facet normal 0 0 -1
    outer loop
      vertex 27 -19 0
      vertex 21.2611 10.0171 0
      vertex 21.5176 10.0681 0
    endloop
  endfacet
  facet normal 0 0 -1
    outer loop
      vertex 27 -19 0
      vertex 21 10 0
      vertex 21.2611 10.0171 0
    endloop
  endfacet
  facet normal 0 0 -1
    outer loop
      vertex 27 -19 0
      vertex 13 10 0
      vertex 21 10 0
    endloop
  endfacet
  facet normal 0 0 -1
    outer loop
      vertex 23 -23 0
      vertex 12.7389 10.0171 0
      vertex 13 10 0
    endloop
  endfacet
  facet normal 0 0 -1
    outer loop
      vertex 23 -23 0
      vertex 12.4824 10.0681 0
      vertex 12.7389 10.0171 0
    endloop
  endfacet
  facet normal 0 0 -1
    outer loop
      vertex 23 -23 0
      vertex 12.2346 10.1522 0
      vertex 12.4824 10.0681 0
    endloop
  endfacet
  facet normal 0 0 -1
    outer loop
      vertex 23 -23 0
      vertex 12 10.2679 0
      vertex 12.2346 10.1522 0
    endloop
  endfacet
  facet normal 0 0 -1
    outer loop
      vertex -12 10.2679 0
      vertex 12 10.2679 0
      vertex 23 -23 0
    endloop
  endfacet
  facet normal 0 0 -1
    outer loop
      vertex 12 10.2679 0
      vertex -12 10.2679 0
      vertex 11.7825 10.4133 0
    endloop
  endfacet
  facet normal 0 -0 -1
    outer loop
      vertex -11.7825 10.4133 0
      vertex 11.7825 10.4133 0
      vertex -12 10.2679 0
    endloop
  endfacet
  facet normal 0 0 -1
    outer loop
      vertex 11.7825 10.4133 0
      vertex -11.7825 10.4133 0
      vertex 11.5858 10.5858 0
    endloop
  endfacet
  facet normal 0 -0 -1
    outer loop
      vertex -11.5858 10.5858 0
      vertex 11.5858 10.5858 0
      vertex -11.7825 10.4133 0
    endloop
  endfacet
  facet normal 0 0 -1
    outer loop
      vertex 11.0171 11.7389 0
      vertex -11 12 0
      vertex 11 12 0
    endloop
  endfacet
  facet normal 0 0 -1
    outer loop
      vertex -11.0171 11.7389 0
      vertex 11.0171 11.7389 0
      vertex 11.0681 11.4824 0
    endloop
  endfacet
  facet normal 0 0 -1
    outer loop
      vertex -11.0681 11.4824 0
      vertex 11.0681 11.4824 0
      vertex 11.1522 11.2346 0
    endloop
  endfacet
  facet normal 0 0 -1
    outer loop
      vertex 11.5858 10.5858 0
      vertex -11.5858 10.5858 0
      vertex 11.4133 10.7825 0
    endloop
  endfacet
  facet normal 0 0 -1
    outer loop
      vertex 11.0171 11.7389 0
      vertex -11.0171 11.7389 0
      vertex -11 12 0
    endloop
  endfacet
  facet normal 0 0 -1
    outer loop
      vertex 11.0681 11.4824 0
      vertex -11.0681 11.4824 0
      vertex -11.0171 11.7389 0
    endloop
  endfacet
  facet normal 0 0 -1
    outer loop
      vertex 11.1522 11.2346 0
      vertex -11.1522 11.2346 0
      vertex -11.0681 11.4824 0
    endloop
  endfacet
  facet normal -0 0 -1
    outer loop
      vertex 11.1522 11.2346 0
      vertex -11.2679 11 0
      vertex -11.1522 11.2346 0
    endloop
  endfacet
  facet normal 0 0 -1
    outer loop
      vertex 11.2679 11 0
      vertex -11.2679 11 0
      vertex 11.1522 11.2346 0
    endloop
  endfacet
  facet normal 0 -0 -1
    outer loop
      vertex -11.2679 11 0
      vertex 11.2679 11 0
      vertex -11.4133 10.7825 0
    endloop
  endfacet
  facet normal 0 0 -1
    outer loop
      vertex 11.4133 10.7825 0
      vertex -11.4133 10.7825 0
      vertex 11.2679 11 0
    endloop
  endfacet
  facet normal 0 -0 -1
    outer loop
      vertex -11.4133 10.7825 0
      vertex 11.4133 10.7825 0
      vertex -11.5858 10.5858 0
    endloop
  endfacet
  facet normal 0 0 -1
    outer loop
      vertex -23 -23 0
      vertex -12 10.2679 0
      vertex 23 -23 0
    endloop
  endfacet
  facet normal 0 0 -1
    outer loop
      vertex -12 10.2679 0
      vertex -23 -23 0
      vertex -12.2346 10.1522 0
    endloop
  endfacet
  facet normal 0 0 -1
    outer loop
      vertex -12.2346 10.1522 0
      vertex -23 -23 0
      vertex -12.4824 10.0681 0
    endloop
  endfacet
  facet normal 0 0 -1
    outer loop
      vertex -12.4824 10.0681 0
      vertex -23 -23 0
      vertex -12.7389 10.0171 0
    endloop
  endfacet
  facet normal 0 0 -1
    outer loop
      vertex -12.7389 10.0171 0
      vertex -23 -23 0
      vertex -13 10 0
    endloop
  endfacet
  facet normal 0 0 -1
    outer loop
      vertex -27 -19 0
      vertex -13 10 0
      vertex -23 -23 0
    endloop
  endfacet
  facet normal -0 0 -1
    outer loop
      vertex -13 10 0
      vertex -27 -19 0
      vertex -21 10 0
    endloop
  endfacet
  facet normal -0 0 -1
    outer loop
      vertex -21 10 0
      vertex -27 -19 0
      vertex -21.2611 10.0171 0
    endloop
  endfacet
  facet normal -0 0 -1
    outer loop
      vertex -21.2611 10.0171 0
      vertex -27 -19 0
      vertex -21.5176 10.0681 0
    endloop
  endfacet
  facet normal -0 0 -1
    outer loop
      vertex -21.5176 10.0681 0
      vertex -27 -19 0
      vertex -21.7654 10.1522 0
    endloop
  endfacet
  facet normal -0 0 -1
    outer loop
      vertex -21.7654 10.1522 0
      vertex -27 -19 0
      vertex -22 10.2679 0
    endloop
  endfacet
  facet normal -0 0 -1
    outer loop
      vertex -22 10.2679 0
      vertex -27 -19 0
      vertex -22.2175 10.4133 0
    endloop
  endfacet
  facet normal -0 0 -1
    outer loop
      vertex -22.2175 10.4133 0
      vertex -27 -19 0
      vertex -22.4142 10.5858 0
    endloop
  endfacet
  facet normal -0 0 -1
    outer loop
      vertex -22.4142 10.5858 0
      vertex -27 -19 0
      vertex -22.5867 10.7825 0
    endloop
  endfacet
  facet normal -0 0 -1
    outer loop
      vertex -22.5867 10.7825 0
      vertex -27 -19 0
      vertex -22.732 11 0
    endloop
  endfacet
  facet normal -0 0 -1
    outer loop
      vertex -22.732 11 0
      vertex -27 -19 0
      vertex -22.8478 11.2346 0
    endloop
  endfacet
  facet normal 0 0 -1
    outer loop
      vertex -27 19 0
      vertex -22.8478 11.2346 0
      vertex -27 -19 0
    endloop
  endfacet
  facet normal 0 0 -1
    outer loop
      vertex -22.8478 11.2346 0
      vertex -27 19 0
      vertex -22.9319 11.4824 0
    endloop
  endfacet
  facet normal 0 0 -1
    outer loop
      vertex -22.9319 11.4824 0
      vertex -27 19 0
      vertex -22.9829 11.7389 0
    endloop
  endfacet
  facet normal 0 0 -1
    outer loop
      vertex -27 -19 0
      vertex -23 -23 0
      vertex -23.5221 -22.9658 0
    endloop
  endfacet
  facet normal 0 0 -1
    outer loop
      vertex -22.9829 11.7389 0
      vertex -27 19 0
      vertex -23 12 0
    endloop
  endfacet
  facet normal 0 0 -1
    outer loop
      vertex -27 -19 0
      vertex -23.5221 -22.9658 0
      vertex -24.0353 -22.8637 0
    endloop
  endfacet
  facet normal 0 0 -1
    outer loop
      vertex -23 12 0
      vertex -27 19 0
      vertex -23 23 0
    endloop
  endfacet
  facet normal 0 0 -1
    outer loop
      vertex -27 -19 0
      vertex -24.0353 -22.8637 0
      vertex -24.5307 -22.6955 0
    endloop
  endfacet
  facet normal 0 0 -1
    outer loop
      vertex -23 23 0
      vertex -27 19 0
      vertex -23.5221 22.9658 0
    endloop
  endfacet
  facet normal 0 0 -1
    outer loop
      vertex -27 -19 0
      vertex -24.5307 -22.6955 0
      vertex -25 -22.4641 0
    endloop
  endfacet
  facet normal 0 0 -1
    outer loop
      vertex -23.5221 22.9658 0
      vertex -27 19 0
      vertex -24.0353 22.8637 0
    endloop
  endfacet
  facet normal 0 0 -1
    outer loop
      vertex -27 -19 0
      vertex -25 -22.4641 0
      vertex -25.435 -22.1734 0
    endloop
  endfacet
  facet normal 0 0 -1
    outer loop
      vertex -24.0353 22.8637 0
      vertex -27 19 0
      vertex -24.5307 22.6955 0
    endloop
  endfacet
  facet normal 0 0 -1
    outer loop
      vertex -27 -19 0
      vertex -25.435 -22.1734 0
      vertex -25.8284 -21.8284 0
    endloop
  endfacet
  facet normal 0 0 -1
    outer loop
      vertex -24.5307 22.6955 0
      vertex -27 19 0
      vertex -25 22.4641 0
    endloop
  endfacet
  facet normal 0 0 -1
    outer loop
      vertex -27 -19 0
      vertex -25.8284 -21.8284 0
      vertex -26.1734 -21.435 0
    endloop
  endfacet
  facet normal 0 0 -1
    outer loop
      vertex -25 22.4641 0
      vertex -27 19 0
      vertex -25.435 22.1734 0
    endloop
  endfacet
  facet normal 0 0 -1
    outer loop
      vertex -27 -19 0
      vertex -26.1734 -21.435 0
      vertex -26.4641 -21 0
    endloop
  endfacet
  facet normal 0 0 -1
    outer loop
      vertex -25.435 22.1734 0
      vertex -27 19 0
      vertex -25.8284 21.8284 0
    endloop
  endfacet
  facet normal 0 0 -1
    outer loop
      vertex -27 -19 0
      vertex -26.4641 -21 0
      vertex -26.6955 -20.5307 0
    endloop
  endfacet
  facet normal 0 0 -1
    outer loop
      vertex -25.8284 21.8284 0
      vertex -27 19 0
      vertex -26.1734 21.435 0
    endloop
  endfacet
  facet normal 0 0 -1
    outer loop
      vertex -27 -19 0
      vertex -26.6955 -20.5307 0
      vertex -26.8637 -20.0353 0
    endloop
  endfacet
  facet normal 0 0 -1
    outer loop
      vertex -26.1734 21.435 0
      vertex -27 19 0
      vertex -26.4641 21 0
    endloop
  endfacet
  facet normal 0 0 -1
    outer loop
      vertex -27 -19 0
      vertex -26.8637 -20.0353 0
      vertex -26.9658 -19.5221 0
    endloop
  endfacet
  facet normal 0 0 -1
    outer loop
      vertex -26.4641 21 0
      vertex -27 19 0
      vertex -26.6955 20.5307 0
    endloop
  endfacet
  facet normal 0 0 -1
    outer loop
      vertex -26.6955 20.5307 0
      vertex -27 19 0
      vertex -26.8637 20.0353 0
    endloop
  endfacet
  facet normal 0 0 -1
    outer loop
      vertex -26.8637 20.0353 0
      vertex -27 19 0
      vertex -26.9658 19.5221 0
    endloop
  endfacet
  facet normal 0 0 -1
    outer loop
      vertex 23 -23 0
      vertex 27 -19 0
      vertex 26.9658 -19.5221 0
    endloop
  endfacet
  facet normal 0 0 -1
    outer loop
      vertex 22.9829 11.7389 0
      vertex 27 19 0
      vertex 27 -19 0
    endloop
  endfacet
  facet normal 0 0 -1
    outer loop
      vertex 23 -23 0
      vertex 26.9658 -19.5221 0
      vertex 26.8637 -20.0353 0
    endloop
  endfacet
  facet normal 0 0 -1
    outer loop
      vertex 22.9829 12.2611 0
      vertex 27 19 0
      vertex 23 12 0
    endloop
  endfacet
  facet normal 0 0 -1
    outer loop
      vertex 23 -23 0
      vertex 26.8637 -20.0353 0
      vertex 26.6955 -20.5307 0
    endloop
  endfacet
  facet normal 0 0 -1
    outer loop
      vertex 22.9319 12.5176 0
      vertex 27 19 0
      vertex 22.9829 12.2611 0
    endloop
  endfacet
  facet normal 0 0 -1
    outer loop
      vertex 23 -23 0
      vertex 26.6955 -20.5307 0
      vertex 26.4641 -21 0
    endloop
  endfacet
  facet normal 0 0 -1
    outer loop
      vertex 22.8478 12.7654 0
      vertex 27 19 0
      vertex 22.9319 12.5176 0
    endloop
  endfacet
  facet normal 0 0 -1
    outer loop
      vertex 23 -23 0
      vertex 26.4641 -21 0
      vertex 26.1734 -21.435 0
    endloop
  endfacet
  facet normal 0 0 -1
    outer loop
      vertex 22.732 13 0
      vertex 27 19 0
      vertex 22.8478 12.7654 0
    endloop
  endfacet
  facet normal 0 0 -1
    outer loop
      vertex 23 -23 0
      vertex 26.1734 -21.435 0
      vertex 25.8284 -21.8284 0
    endloop
  endfacet
  facet normal 0 0 -1
    outer loop
      vertex 22.5867 13.2175 0
      vertex 27 19 0
      vertex 22.732 13 0
    endloop
  endfacet
  facet normal 0 0 -1
    outer loop
      vertex 23 -23 0
      vertex 25.8284 -21.8284 0
      vertex 25.435 -22.1734 0
    endloop
  endfacet
  facet normal 0 0 -1
    outer loop
      vertex 22.4142 13.4142 0
      vertex 27 19 0
      vertex 22.5867 13.2175 0
    endloop
  endfacet
  facet normal 0 0 -1
    outer loop
      vertex 23 -23 0
      vertex 25.435 -22.1734 0
      vertex 25 -22.4641 0
    endloop
  endfacet
  facet normal 0 0 -1
    outer loop
      vertex 22.2175 13.5867 0
      vertex 27 19 0
      vertex 22.4142 13.4142 0
    endloop
  endfacet
  facet normal 0 0 -1
    outer loop
      vertex 23 -23 0
      vertex 25 -22.4641 0
      vertex 24.5307 -22.6955 0
    endloop
  endfacet
  facet normal 0 0 -1
    outer loop
      vertex 22 13.732 0
      vertex 27 19 0
      vertex 22.2175 13.5867 0
    endloop
  endfacet
  facet normal 0 0 -1
    outer loop
      vertex 23 -23 0
      vertex 24.5307 -22.6955 0
      vertex 24.0353 -22.8637 0
    endloop
  endfacet
  facet normal 0 0 -1
    outer loop
      vertex 21.7654 13.8478 0
      vertex 27 19 0
      vertex 22 13.732 0
    endloop
  endfacet
  facet normal 0 0 -1
    outer loop
      vertex 23 -23 0
      vertex 24.0353 -22.8637 0
      vertex 23.5221 -22.9658 0
    endloop
  endfacet
  facet normal 0 0 -1
    outer loop
      vertex 21.5176 13.9319 0
      vertex 27 19 0
      vertex 21.7654 13.8478 0
    endloop
  endfacet
  facet normal 0 0 -1
    outer loop
      vertex 13 10 0
      vertex 27 -19 0
      vertex 23 -23 0
    endloop
  endfacet
  facet normal 0 -0 -1
    outer loop
      vertex 23 23 0
      vertex 27 19 0
      vertex 21.5176 13.9319 0
    endloop
  endfacet
  facet normal 0 0 -1
    outer loop
      vertex 27 19 0
      vertex 23 23 0
      vertex 26.9658 19.5221 0
    endloop
  endfacet
  facet normal 0 0 -1
    outer loop
      vertex 26.9658 19.5221 0
      vertex 23 23 0
      vertex 26.8637 20.0353 0
    endloop
  endfacet
  facet normal 0 0 -1
    outer loop
      vertex 26.8637 20.0353 0
      vertex 23 23 0
      vertex 26.6955 20.5307 0
    endloop
  endfacet
  facet normal 0 0 -1
    outer loop
      vertex 26.6955 20.5307 0
      vertex 23 23 0
      vertex 26.4641 21 0
    endloop
  endfacet
  facet normal 0 0 -1
    outer loop
      vertex 26.4641 21 0
      vertex 23 23 0
      vertex 26.1734 21.435 0
    endloop
  endfacet
  facet normal 0 0 -1
    outer loop
      vertex 26.1734 21.435 0
      vertex 23 23 0
      vertex 25.8284 21.8284 0
    endloop
  endfacet
  facet normal 0 0 -1
    outer loop
      vertex 25.8284 21.8284 0
      vertex 23 23 0
      vertex 25.435 22.1734 0
    endloop
  endfacet
  facet normal 0 0 -1
    outer loop
      vertex 25.435 22.1734 0
      vertex 23 23 0
      vertex 25 22.4641 0
    endloop
  endfacet
  facet normal 0 0 -1
    outer loop
      vertex 25 22.4641 0
      vertex 23 23 0
      vertex 24.5307 22.6955 0
    endloop
  endfacet
  facet normal 0 0 -1
    outer loop
      vertex 24.5307 22.6955 0
      vertex 23 23 0
      vertex 24.0353 22.8637 0
    endloop
  endfacet
  facet normal 0 0 -1
    outer loop
      vertex 24.0353 22.8637 0
      vertex 23 23 0
      vertex 23.5221 22.9658 0
    endloop
  endfacet
  facet normal 0 0 -1
    outer loop
      vertex 21.2611 13.9829 0
      vertex 23 23 0
      vertex 21.5176 13.9319 0
    endloop
  endfacet
  facet normal 0 0 -1
    outer loop
      vertex 21 14 0
      vertex 23 23 0
      vertex 21.2611 13.9829 0
    endloop
  endfacet
  facet normal 0 0 -1
    outer loop
      vertex 13 14 0
      vertex 23 23 0
      vertex 21 14 0
    endloop
  endfacet
  facet normal 0 0 -1
    outer loop
      vertex 12.7389 13.9829 0
      vertex 23 23 0
      vertex 13 14 0
    endloop
  endfacet
  facet normal 0 0 -1
    outer loop
      vertex 12.4824 13.9319 0
      vertex 23 23 0
      vertex 12.7389 13.9829 0
    endloop
  endfacet
  facet normal 0 0 -1
    outer loop
      vertex 12.2346 13.8478 0
      vertex 23 23 0
      vertex 12.4824 13.9319 0
    endloop
  endfacet
  facet normal 0 0 -1
    outer loop
      vertex -12.2346 13.8478 0
      vertex 12.2346 13.8478 0
      vertex 12 13.732 0
    endloop
  endfacet
  facet normal 0 0 -1
    outer loop
      vertex -12 13.732 0
      vertex 12 13.732 0
      vertex 11.7825 13.5867 0
    endloop
  endfacet
  facet normal 0 0 -1
    outer loop
      vertex -11 12 0
      vertex 11.0171 12.2611 0
      vertex 11 12 0
    endloop
  endfacet
  facet normal 0 0 -1
    outer loop
      vertex -11.0171 12.2611 0
      vertex 11.0171 12.2611 0
      vertex -11 12 0
    endloop
  endfacet
  facet normal 0 0 -1
    outer loop
      vertex 11.0171 12.2611 0
      vertex -11.0171 12.2611 0
      vertex 11.0681 12.5176 0
    endloop
  endfacet
  facet normal 0 0 -1
    outer loop
      vertex -11.0681 12.5176 0
      vertex 11.0681 12.5176 0
      vertex -11.0171 12.2611 0
    endloop
  endfacet
  facet normal 0 0 -1
    outer loop
      vertex 11.0681 12.5176 0
      vertex -11.0681 12.5176 0
      vertex 11.1522 12.7654 0
    endloop
  endfacet
  facet normal 0 0 -1
    outer loop
      vertex -11.1522 12.7654 0
      vertex 11.1522 12.7654 0
      vertex -11.0681 12.5176 0
    endloop
  endfacet
  facet normal 0 0 -1
    outer loop
      vertex 11.1522 12.7654 0
      vertex -11.1522 12.7654 0
      vertex 11.2679 13 0
    endloop
  endfacet
  facet normal 0 0 -1
    outer loop
      vertex -11.2679 13 0
      vertex 11.2679 13 0
      vertex -11.1522 12.7654 0
    endloop
  endfacet
  facet normal 0 0 -1
    outer loop
      vertex 11.2679 13 0
      vertex -11.2679 13 0
      vertex 11.4133 13.2175 0
    endloop
  endfacet
  facet normal 0 0 -1
    outer loop
      vertex -11.4133 13.2175 0
      vertex 11.4133 13.2175 0
      vertex -11.2679 13 0
    endloop
  endfacet
  facet normal 0 0 -1
    outer loop
      vertex 11.4133 13.2175 0
      vertex -11.4133 13.2175 0
      vertex 11.5858 13.4142 0
    endloop
  endfacet
  facet normal 0 0 -1
    outer loop
      vertex -11.5858 13.4142 0
      vertex 11.5858 13.4142 0
      vertex -11.4133 13.2175 0
    endloop
  endfacet
  facet normal 0 0 -1
    outer loop
      vertex 11.5858 13.4142 0
      vertex -11.5858 13.4142 0
      vertex 11.7825 13.5867 0
    endloop
  endfacet
  facet normal 0 0 -1
    outer loop
      vertex -11.7825 13.5867 0
      vertex 11.7825 13.5867 0
      vertex -11.5858 13.4142 0
    endloop
  endfacet
  facet normal 0 0 -1
    outer loop
      vertex -12 13.732 0
      vertex 11.7825 13.5867 0
      vertex -11.7825 13.5867 0
    endloop
  endfacet
  facet normal 0 0 -1
    outer loop
      vertex -12.2346 13.8478 0
      vertex 12 13.732 0
      vertex -12 13.732 0
    endloop
  endfacet
  facet normal 0 0 -1
    outer loop
      vertex 12.2346 13.8478 0
      vertex -12.2346 13.8478 0
      vertex 23 23 0
    endloop
  endfacet
  facet normal 0 0 -1
    outer loop
      vertex -23 23 0
      vertex -12.2346 13.8478 0
      vertex -12.4824 13.9319 0
    endloop
  endfacet
  facet normal 0 0 -1
    outer loop
      vertex -23 23 0
      vertex -12.4824 13.9319 0
      vertex -12.7389 13.9829 0
    endloop
  endfacet
  facet normal 0 0 -1
    outer loop
      vertex -23 23 0
      vertex -12.7389 13.9829 0
      vertex -13 14 0
    endloop
  endfacet
  facet normal 0 0 -1
    outer loop
      vertex -23 23 0
      vertex -13 14 0
      vertex -21 14 0
    endloop
  endfacet
  facet normal 0 0 -1
    outer loop
      vertex -23 23 0
      vertex -21 14 0
      vertex -21.2611 13.9829 0
    endloop
  endfacet
  facet normal 0 0 -1
    outer loop
      vertex -23 23 0
      vertex -21.2611 13.9829 0
      vertex -21.5176 13.9319 0
    endloop
  endfacet
  facet normal 0 0 -1
    outer loop
      vertex -12.2346 13.8478 0
      vertex -23 23 0
      vertex 23 23 0
    endloop
  endfacet
  facet normal 0 0 -1
    outer loop
      vertex -21.7654 13.8478 0
      vertex -23 23 0
      vertex -21.5176 13.9319 0
    endloop
  endfacet
  facet normal 0 0 -1
    outer loop
      vertex -22 13.732 0
      vertex -23 23 0
      vertex -21.7654 13.8478 0
    endloop
  endfacet
  facet normal 0 0 -1
    outer loop
      vertex -22.2175 13.5867 0
      vertex -23 23 0
      vertex -22 13.732 0
    endloop
  endfacet
  facet normal 0 0 -1
    outer loop
      vertex -22.4142 13.4142 0
      vertex -23 23 0
      vertex -22.2175 13.5867 0
    endloop
  endfacet
  facet normal 0 0 -1
    outer loop
      vertex -22.5867 13.2175 0
      vertex -23 23 0
      vertex -22.4142 13.4142 0
    endloop
  endfacet
  facet normal 0 0 -1
    outer loop
      vertex -22.732 13 0
      vertex -23 23 0
      vertex -22.5867 13.2175 0
    endloop
  endfacet
  facet normal 0 0 -1
    outer loop
      vertex -22.8478 12.7654 0
      vertex -23 23 0
      vertex -22.732 13 0
    endloop
  endfacet
  facet normal 0 0 -1
    outer loop
      vertex -22.9319 12.5176 0
      vertex -23 23 0
      vertex -22.8478 12.7654 0
    endloop
  endfacet
  facet normal 0 0 -1
    outer loop
      vertex -22.9829 12.2611 0
      vertex -23 23 0
      vertex -22.9319 12.5176 0
    endloop
  endfacet
  facet normal 0 0 -1
    outer loop
      vertex -23 23 0
      vertex -22.9829 12.2611 0
      vertex -23 12 0
    endloop
  endfacet
  facet normal 0 0 1
    outer loop
      vertex 23 -23 16
      vertex 27 -19 16
      vertex 27 -1.82404 16
    endloop
  endfacet
  facet normal 0 0 1
    outer loop
      vertex 27 -19 16
      vertex 23 -23 16
      vertex 26.9658 -19.5221 16
    endloop
  endfacet
  facet normal 0 0 1
    outer loop
      vertex 26.9658 -19.5221 16
      vertex 23 -23 16
      vertex 26.8637 -20.0353 16
    endloop
  endfacet
  facet normal 0 0 1
    outer loop
      vertex 26.8637 -20.0353 16
      vertex 23 -23 16
      vertex 26.6955 -20.5307 16
    endloop
  endfacet
  facet normal 0 0 1
    outer loop
      vertex 26.6955 -20.5307 16
      vertex 23 -23 16
      vertex 26.4641 -21 16
    endloop
  endfacet
  facet normal 0 0 1
    outer loop
      vertex 26.4641 -21 16
      vertex 23 -23 16
      vertex 26.1734 -21.435 16
    endloop
  endfacet
  facet normal 0 0 1
    outer loop
      vertex 26.1734 -21.435 16
      vertex 23 -23 16
      vertex 25.8284 -21.8284 16
    endloop
  endfacet
  facet normal 0 0 1
    outer loop
      vertex 25.8284 -21.8284 16
      vertex 23 -23 16
      vertex 25.435 -22.1734 16
    endloop
  endfacet
  facet normal 0 0 1
    outer loop
      vertex 25.435 -22.1734 16
      vertex 23 -23 16
      vertex 25 -22.4641 16
    endloop
  endfacet
  facet normal 0 0 1
    outer loop
      vertex 25 -22.4641 16
      vertex 23 -23 16
      vertex 24.5307 -22.6955 16
    endloop
  endfacet
  facet normal 0 0 1
    outer loop
      vertex 24.5307 -22.6955 16
      vertex 23 -23 16
      vertex 24.0353 -22.8637 16
    endloop
  endfacet
  facet normal 0 0 1
    outer loop
      vertex 24.0353 -22.8637 16
      vertex 23 -23 16
      vertex 23.5221 -22.9658 16
    endloop
  endfacet
  facet normal 0 0 1
    outer loop
      vertex 27 -1.82404 16
      vertex -23 -23 16
      vertex 23 -23 16
    endloop
  endfacet
  facet normal -0 0 1
    outer loop
      vertex -27 -1.82404 16
      vertex -23 -23 16
      vertex 27 -1.82404 16
    endloop
  endfacet
  facet normal -0 0 1
    outer loop
      vertex -27 -19 16
      vertex -23 -23 16
      vertex -27 -1.82404 16
    endloop
  endfacet
  facet normal 0 0 1
    outer loop
      vertex -23 -23 16
      vertex -27 -19 16
      vertex -23.5221 -22.9658 16
    endloop
  endfacet
  facet normal 0 0 1
    outer loop
      vertex -23.5221 -22.9658 16
      vertex -27 -19 16
      vertex -24.0353 -22.8637 16
    endloop
  endfacet
  facet normal 0 0 1
    outer loop
      vertex -24.0353 -22.8637 16
      vertex -27 -19 16
      vertex -24.5307 -22.6955 16
    endloop
  endfacet
  facet normal 0 0 1
    outer loop
      vertex -24.5307 -22.6955 16
      vertex -27 -19 16
      vertex -25 -22.4641 16
    endloop
  endfacet
  facet normal 0 0 1
    outer loop
      vertex -25 -22.4641 16
      vertex -27 -19 16
      vertex -25.435 -22.1734 16
    endloop
  endfacet
  facet normal 0 0 1
    outer loop
      vertex -25.8284 -21.8284 16
      vertex -27 -19 16
      vertex -26.1734 -21.435 16
    endloop
  endfacet
  facet normal 0 0 1
    outer loop
      vertex -26.1734 -21.435 16
      vertex -27 -19 16
      vertex -26.4641 -21 16
    endloop
  endfacet
  facet normal 0 0 1
    outer loop
      vertex -26.4641 -21 16
      vertex -27 -19 16
      vertex -26.6955 -20.5307 16
    endloop
  endfacet
  facet normal 0 0 1
    outer loop
      vertex -26.6955 -20.5307 16
      vertex -27 -19 16
      vertex -26.8637 -20.0353 16
    endloop
  endfacet
  facet normal 0 0 1
    outer loop
      vertex -25.435 -22.1734 16
      vertex -27 -19 16
      vertex -25.8284 -21.8284 16
    endloop
  endfacet
  facet normal 0 0 1
    outer loop
      vertex -26.8637 -20.0353 16
      vertex -27 -19 16
      vertex -26.9658 -19.5221 16
    endloop
  endfacet
  facet normal 0 0 1
    outer loop
      vertex 27 19 16
      vertex 22.9829 12.2611 16
      vertex 23 12 16
    endloop
  endfacet
  facet normal 0 0 1
    outer loop
      vertex 27 19 16
      vertex 22.9319 12.5176 16
      vertex 22.9829 12.2611 16
    endloop
  endfacet
  facet normal 0 0 1
    outer loop
      vertex 27 19 16
      vertex 22.8478 12.7654 16
      vertex 22.9319 12.5176 16
    endloop
  endfacet
  facet normal 0 0 1
    outer loop
      vertex 27 19 16
      vertex 22.732 13 16
      vertex 22.8478 12.7654 16
    endloop
  endfacet
  facet normal 0 0 1
    outer loop
      vertex 27 19 16
      vertex 22.5867 13.2175 16
      vertex 22.732 13 16
    endloop
  endfacet
  facet normal 0 0 1
    outer loop
      vertex 27 19 16
      vertex 22.4142 13.4142 16
      vertex 22.5867 13.2175 16
    endloop
  endfacet
  facet normal 0 0 1
    outer loop
      vertex 27 19 16
      vertex 22.2175 13.5867 16
      vertex 22.4142 13.4142 16
    endloop
  endfacet
  facet normal 0 0 1
    outer loop
      vertex 27 19 16
      vertex 22 13.732 16
      vertex 22.2175 13.5867 16
    endloop
  endfacet
  facet normal 0 0 1
    outer loop
      vertex 27 19 16
      vertex 21.7654 13.8478 16
      vertex 22 13.732 16
    endloop
  endfacet
  facet normal 0 0 1
    outer loop
      vertex 27 19 16
      vertex 21.5176 13.9319 16
      vertex 21.7654 13.8478 16
    endloop
  endfacet
  facet normal 0 0 1
    outer loop
      vertex 23 23 16
      vertex 21.2611 13.9829 16
      vertex 21.5176 13.9319 16
    endloop
  endfacet
  facet normal 0 0 1
    outer loop
      vertex 23 23 16
      vertex 21 14 16
      vertex 21.2611 13.9829 16
    endloop
  endfacet
  facet normal 0 0 1
    outer loop
      vertex 23 23 16
      vertex 13 14 16
      vertex 21 14 16
    endloop
  endfacet
  facet normal 0 0 1
    outer loop
      vertex 23 23 16
      vertex 12.7389 13.9829 16
      vertex 13 14 16
    endloop
  endfacet
  facet normal 0 0 1
    outer loop
      vertex 23 23 16
      vertex 12.4824 13.9319 16
      vertex 12.7389 13.9829 16
    endloop
  endfacet
  facet normal 0 0 1
    outer loop
      vertex 23 23 16
      vertex 12.2346 13.8478 16
      vertex 12.4824 13.9319 16
    endloop
  endfacet
  facet normal 0 0 1
    outer loop
      vertex -12.2346 13.8478 16
      vertex 12.2346 13.8478 16
      vertex 23 23 16
    endloop
  endfacet
  facet normal 0 0 1
    outer loop
      vertex 12.2346 13.8478 16
      vertex -12.2346 13.8478 16
      vertex 12 13.732 16
    endloop
  endfacet
  facet normal 0 0 1
    outer loop
      vertex 11.0171 12.2611 16
      vertex -11 12 16
      vertex 11 12 16
    endloop
  endfacet
  facet normal 0 0 1
    outer loop
      vertex -11.0171 12.2611 16
      vertex 11.0171 12.2611 16
      vertex 11.0681 12.5176 16
    endloop
  endfacet
  facet normal 0 0 1
    outer loop
      vertex -11.0681 12.5176 16
      vertex 11.0681 12.5176 16
      vertex 11.1522 12.7654 16
    endloop
  endfacet
  facet normal 0 0 1
    outer loop
      vertex -11.1522 12.7654 16
      vertex 11.1522 12.7654 16
      vertex 11.2679 13 16
    endloop
  endfacet
  facet normal 0 0 1
    outer loop
      vertex -11.2679 13 16
      vertex 11.2679 13 16
      vertex 11.4133 13.2175 16
    endloop
  endfacet
  facet normal 0 0 1
    outer loop
      vertex -11.4133 13.2175 16
      vertex 11.4133 13.2175 16
      vertex 11.5858 13.4142 16
    endloop
  endfacet
  facet normal 0 0 1
    outer loop
      vertex -11.5858 13.4142 16
      vertex 11.5858 13.4142 16
      vertex 11.7825 13.5867 16
    endloop
  endfacet
  facet normal 0 0 1
    outer loop
      vertex 12 13.732 16
      vertex -12 13.732 16
      vertex 11.7825 13.5867 16
    endloop
  endfacet
  facet normal 0 0 1
    outer loop
      vertex 11.0171 12.2611 16
      vertex -11.0171 12.2611 16
      vertex -11 12 16
    endloop
  endfacet
  facet normal 0 0 1
    outer loop
      vertex 11.0681 12.5176 16
      vertex -11.0681 12.5176 16
      vertex -11.0171 12.2611 16
    endloop
  endfacet
  facet normal 0 0 1
    outer loop
      vertex 11.1522 12.7654 16
      vertex -11.1522 12.7654 16
      vertex -11.0681 12.5176 16
    endloop
  endfacet
  facet normal 0 0 1
    outer loop
      vertex 11.2679 13 16
      vertex -11.2679 13 16
      vertex -11.1522 12.7654 16
    endloop
  endfacet
  facet normal 0 0 1
    outer loop
      vertex 11.4133 13.2175 16
      vertex -11.4133 13.2175 16
      vertex -11.2679 13 16
    endloop
  endfacet
  facet normal 0 0 1
    outer loop
      vertex 11.5858 13.4142 16
      vertex -11.5858 13.4142 16
      vertex -11.4133 13.2175 16
    endloop
  endfacet
  facet normal 0 0 1
    outer loop
      vertex 11.7825 13.5867 16
      vertex -11.7825 13.5867 16
      vertex -11.5858 13.4142 16
    endloop
  endfacet
  facet normal 0 0 1
    outer loop
      vertex 11.7825 13.5867 16
      vertex -12 13.732 16
      vertex -11.7825 13.5867 16
    endloop
  endfacet
  facet normal 0 0 1
    outer loop
      vertex 12 13.732 16
      vertex -12.2346 13.8478 16
      vertex -12 13.732 16
    endloop
  endfacet
  facet normal -0 0 1
    outer loop
      vertex -23 23 16
      vertex -12.2346 13.8478 16
      vertex 23 23 16
    endloop
  endfacet
  facet normal 0 0 1
    outer loop
      vertex -12.2346 13.8478 16
      vertex -23 23 16
      vertex -12.4824 13.9319 16
    endloop
  endfacet
  facet normal 0 0 1
    outer loop
      vertex -12.4824 13.9319 16
      vertex -23 23 16
      vertex -12.7389 13.9829 16
    endloop
  endfacet
  facet normal 0 0 1
    outer loop
      vertex -12.7389 13.9829 16
      vertex -23 23 16
      vertex -13 14 16
    endloop
  endfacet
  facet normal 0 0 1
    outer loop
      vertex -13 14 16
      vertex -23 23 16
      vertex -21 14 16
    endloop
  endfacet
  facet normal 0 0 1
    outer loop
      vertex -21 14 16
      vertex -23 23 16
      vertex -21.2611 13.9829 16
    endloop
  endfacet
  facet normal 0 0 1
    outer loop
      vertex -21.2611 13.9829 16
      vertex -23 23 16
      vertex -21.5176 13.9319 16
    endloop
  endfacet
  facet normal -0 0 1
    outer loop
      vertex -27 19 16
      vertex -21.5176 13.9319 16
      vertex -23 23 16
    endloop
  endfacet
  facet normal 0 0 1
    outer loop
      vertex -21.5176 13.9319 16
      vertex -27 19 16
      vertex -21.7654 13.8478 16
    endloop
  endfacet
  facet normal 0 0 1
    outer loop
      vertex -21.7654 13.8478 16
      vertex -27 19 16
      vertex -22 13.732 16
    endloop
  endfacet
  facet normal 0 0 1
    outer loop
      vertex -22 13.732 16
      vertex -27 19 16
      vertex -22.2175 13.5867 16
    endloop
  endfacet
  facet normal 0 0 1
    outer loop
      vertex -22.2175 13.5867 16
      vertex -27 19 16
      vertex -22.4142 13.4142 16
    endloop
  endfacet
  facet normal 0 0 1
    outer loop
      vertex -22.4142 13.4142 16
      vertex -27 19 16
      vertex -22.5867 13.2175 16
    endloop
  endfacet
  facet normal 0 0 1
    outer loop
      vertex -22.5867 13.2175 16
      vertex -27 19 16
      vertex -22.732 13 16
    endloop
  endfacet
  facet normal 0 0 1
    outer loop
      vertex -22.732 13 16
      vertex -27 19 16
      vertex -22.8478 12.7654 16
    endloop
  endfacet
  facet normal 0 0 1
    outer loop
      vertex -22.8478 12.7654 16
      vertex -27 19 16
      vertex -22.9319 12.5176 16
    endloop
  endfacet
  facet normal 0 0 1
    outer loop
      vertex -22.9319 12.5176 16
      vertex -27 19 16
      vertex -22.9829 12.2611 16
    endloop
  endfacet
  facet normal 0 0 1
    outer loop
      vertex -27 19 16
      vertex -23 23 16
      vertex -23.5221 22.9658 16
    endloop
  endfacet
  facet normal 0 0 1
    outer loop
      vertex 23 23 16
      vertex 27 19 16
      vertex 26.9658 19.5221 16
    endloop
  endfacet
  facet normal 0 0 1
    outer loop
      vertex 23 23 16
      vertex 26.9658 19.5221 16
      vertex 26.8637 20.0353 16
    endloop
  endfacet
  facet normal 0 0 1
    outer loop
      vertex 23 23 16
      vertex 26.8637 20.0353 16
      vertex 26.6955 20.5307 16
    endloop
  endfacet
  facet normal 0 0 1
    outer loop
      vertex 23 23 16
      vertex 26.6955 20.5307 16
      vertex 26.4641 21 16
    endloop
  endfacet
  facet normal 0 0 1
    outer loop
      vertex 23 23 16
      vertex 26.4641 21 16
      vertex 26.1734 21.435 16
    endloop
  endfacet
  facet normal 0 0 1
    outer loop
      vertex 23 23 16
      vertex 26.1734 21.435 16
      vertex 25.8284 21.8284 16
    endloop
  endfacet
  facet normal 0 0 1
    outer loop
      vertex 23 23 16
      vertex 25.8284 21.8284 16
      vertex 25.435 22.1734 16
    endloop
  endfacet
  facet normal 0 0 1
    outer loop
      vertex 23 23 16
      vertex 25.435 22.1734 16
      vertex 25 22.4641 16
    endloop
  endfacet
  facet normal 0 0 1
    outer loop
      vertex 23 23 16
      vertex 25 22.4641 16
      vertex 24.5307 22.6955 16
    endloop
  endfacet
  facet normal 0 0 1
    outer loop
      vertex 23 23 16
      vertex 24.5307 22.6955 16
      vertex 24.0353 22.8637 16
    endloop
  endfacet
  facet normal 0 0 1
    outer loop
      vertex 23 23 16
      vertex 24.0353 22.8637 16
      vertex 23.5221 22.9658 16
    endloop
  endfacet
  facet normal 0 0 1
    outer loop
      vertex 21.5176 13.9319 16
      vertex 27 19 16
      vertex 23 23 16
    endloop
  endfacet
  facet normal 0 0 1
    outer loop
      vertex 22.9829 11.7389 16
      vertex 27 19 16
      vertex 23 12 16
    endloop
  endfacet
  facet normal 0 0 1
    outer loop
      vertex 27 19 16
      vertex 22.9829 11.7389 16
      vertex 27 2.67426 16
    endloop
  endfacet
  facet normal -0 0 1
    outer loop
      vertex 22.9319 11.4824 16
      vertex 27 2.67426 16
      vertex 22.9829 11.7389 16
    endloop
  endfacet
  facet normal -0 0 1
    outer loop
      vertex 22.8478 11.2346 16
      vertex 27 2.67426 16
      vertex 22.9319 11.4824 16
    endloop
  endfacet
  facet normal -0 0 1
    outer loop
      vertex 22.732 11 16
      vertex 27 2.67426 16
      vertex 22.8478 11.2346 16
    endloop
  endfacet
  facet normal -0 0 1
    outer loop
      vertex 22.5867 10.7825 16
      vertex 27 2.67426 16
      vertex 22.732 11 16
    endloop
  endfacet
  facet normal -0 0 1
    outer loop
      vertex 22.4142 10.5858 16
      vertex 27 2.67426 16
      vertex 22.5867 10.7825 16
    endloop
  endfacet
  facet normal -0 0 1
    outer loop
      vertex 22.2175 10.4133 16
      vertex 27 2.67426 16
      vertex 22.4142 10.5858 16
    endloop
  endfacet
  facet normal -0 0 1
    outer loop
      vertex 22 10.2679 16
      vertex 27 2.67426 16
      vertex 22.2175 10.4133 16
    endloop
  endfacet
  facet normal -0 0 1
    outer loop
      vertex 21.7654 10.1522 16
      vertex 27 2.67426 16
      vertex 22 10.2679 16
    endloop
  endfacet
  facet normal -0 0 1
    outer loop
      vertex 21.5176 10.0681 16
      vertex 27 2.67426 16
      vertex 21.7654 10.1522 16
    endloop
  endfacet
  facet normal -0 0 1
    outer loop
      vertex 21.2611 10.0171 16
      vertex 27 2.67426 16
      vertex 21.5176 10.0681 16
    endloop
  endfacet
  facet normal -0 0 1
    outer loop
      vertex 21 10 16
      vertex 27 2.67426 16
      vertex 21.2611 10.0171 16
    endloop
  endfacet
  facet normal -0 0 1
    outer loop
      vertex 13 10 16
      vertex 27 2.67426 16
      vertex 21 10 16
    endloop
  endfacet
  facet normal 0 0 1
    outer loop
      vertex 12.7389 10.0171 16
      vertex 27 2.67426 16
      vertex 13 10 16
    endloop
  endfacet
  facet normal 0 0 1
    outer loop
      vertex 12.4824 10.0681 16
      vertex 27 2.67426 16
      vertex 12.7389 10.0171 16
    endloop
  endfacet
  facet normal 0 0 1
    outer loop
      vertex -12.4824 10.0681 16
      vertex 12.4824 10.0681 16
      vertex 12.2346 10.1522 16
    endloop
  endfacet
  facet normal 0 0 1
    outer loop
      vertex -12.2346 10.1522 16
      vertex 12.2346 10.1522 16
      vertex 12 10.2679 16
    endloop
  endfacet
  facet normal -0 0 1
    outer loop
      vertex -11 12 16
      vertex 11.0171 11.7389 16
      vertex 11 12 16
    endloop
  endfacet
  facet normal 0 0 1
    outer loop
      vertex -11.0171 11.7389 16
      vertex 11.0171 11.7389 16
      vertex -11 12 16
    endloop
  endfacet
  facet normal 0 0 1
    outer loop
      vertex 11.0171 11.7389 16
      vertex -11.0171 11.7389 16
      vertex 11.0681 11.4824 16
    endloop
  endfacet
  facet normal 0 0 1
    outer loop
      vertex -11.0681 11.4824 16
      vertex 11.0681 11.4824 16
      vertex -11.0171 11.7389 16
    endloop
  endfacet
  facet normal 0 0 1
    outer loop
      vertex 11.0681 11.4824 16
      vertex -11.0681 11.4824 16
      vertex 11.1522 11.2346 16
    endloop
  endfacet
  facet normal 0 0 1
    outer loop
      vertex -11.1522 11.2346 16
      vertex 11.1522 11.2346 16
      vertex -11.0681 11.4824 16
    endloop
  endfacet
  facet normal 0 0 1
    outer loop
      vertex 11.1522 11.2346 16
      vertex -11.1522 11.2346 16
      vertex 11.2679 11 16
    endloop
  endfacet
  facet normal 0 0 1
    outer loop
      vertex -11.2679 11 16
      vertex 11.2679 11 16
      vertex -11.1522 11.2346 16
    endloop
  endfacet
  facet normal 0 0 1
    outer loop
      vertex 11.2679 11 16
      vertex -11.2679 11 16
      vertex 11.4133 10.7825 16
    endloop
  endfacet
  facet normal 0 0 1
    outer loop
      vertex -11.4133 10.7825 16
      vertex 11.4133 10.7825 16
      vertex -11.2679 11 16
    endloop
  endfacet
  facet normal 0 0 1
    outer loop
      vertex 11.4133 10.7825 16
      vertex -11.4133 10.7825 16
      vertex 11.5858 10.5858 16
    endloop
  endfacet
  facet normal 0 0 1
    outer loop
      vertex -11.5858 10.5858 16
      vertex 11.5858 10.5858 16
      vertex -11.4133 10.7825 16
    endloop
  endfacet
  facet normal 0 0 1
    outer loop
      vertex 11.5858 10.5858 16
      vertex -11.5858 10.5858 16
      vertex 11.7825 10.4133 16
    endloop
  endfacet
  facet normal 0 0 1
    outer loop
      vertex -11.7825 10.4133 16
      vertex 11.7825 10.4133 16
      vertex -11.5858 10.5858 16
    endloop
  endfacet
  facet normal 0 0 1
    outer loop
      vertex 11.7825 10.4133 16
      vertex -11.7825 10.4133 16
      vertex 12 10.2679 16
    endloop
  endfacet
  facet normal 0 0 1
    outer loop
      vertex -12 10.2679 16
      vertex 12 10.2679 16
      vertex -11.7825 10.4133 16
    endloop
  endfacet
  facet normal 0 0 1
    outer loop
      vertex -12.2346 10.1522 16
      vertex 12 10.2679 16
      vertex -12 10.2679 16
    endloop
  endfacet
  facet normal 0 0 1
    outer loop
      vertex 12.2346 10.1522 16
      vertex -12.2346 10.1522 16
      vertex -12.4824 10.0681 16
    endloop
  endfacet
  facet normal 0 0 1
    outer loop
      vertex 12.4824 10.0681 16
      vertex -12.4824 10.0681 16
      vertex 27 2.67426 16
    endloop
  endfacet
  facet normal 0 0 1
    outer loop
      vertex -27 2.67426 16
      vertex -12.4824 10.0681 16
      vertex -12.7389 10.0171 16
    endloop
  endfacet
  facet normal 0 0 1
    outer loop
      vertex -27 2.67426 16
      vertex -12.7389 10.0171 16
      vertex -13 10 16
    endloop
  endfacet
  facet normal 0 0 1
    outer loop
      vertex -27 2.67426 16
      vertex -13 10 16
      vertex -21 10 16
    endloop
  endfacet
  facet normal 0 0 1
    outer loop
      vertex -27 2.67426 16
      vertex -21 10 16
      vertex -21.2611 10.0171 16
    endloop
  endfacet
  facet normal 0 0 1
    outer loop
      vertex -27 19 16
      vertex -23.5221 22.9658 16
      vertex -24.0353 22.8637 16
    endloop
  endfacet
  facet normal 0 0 1
    outer loop
      vertex -22.9829 12.2611 16
      vertex -27 19 16
      vertex -23 12 16
    endloop
  endfacet
  facet normal 0 0 1
    outer loop
      vertex -27 19 16
      vertex -24.0353 22.8637 16
      vertex -24.5307 22.6955 16
    endloop
  endfacet
  facet normal 0 0 1
    outer loop
      vertex -27 19 16
      vertex -24.5307 22.6955 16
      vertex -25 22.4641 16
    endloop
  endfacet
  facet normal 0 0 1
    outer loop
      vertex -27 19 16
      vertex -25 22.4641 16
      vertex -25.435 22.1734 16
    endloop
  endfacet
  facet normal 0 0 1
    outer loop
      vertex -23 12 16
      vertex -27 19 16
      vertex -22.9829 11.7389 16
    endloop
  endfacet
  facet normal 0 0 1
    outer loop
      vertex -27 19 16
      vertex -25.435 22.1734 16
      vertex -25.8284 21.8284 16
    endloop
  endfacet
  facet normal 0 0 1
    outer loop
      vertex -27 19 16
      vertex -25.8284 21.8284 16
      vertex -26.1734 21.435 16
    endloop
  endfacet
  facet normal 0 0 1
    outer loop
      vertex -27 19 16
      vertex -26.1734 21.435 16
      vertex -26.4641 21 16
    endloop
  endfacet
  facet normal 0 0 1
    outer loop
      vertex -27 2.67426 16
      vertex -22.9829 11.7389 16
      vertex -27 19 16
    endloop
  endfacet
  facet normal 0 0 1
    outer loop
      vertex -27 19 16
      vertex -26.4641 21 16
      vertex -26.6955 20.5307 16
    endloop
  endfacet
  facet normal 0 0 1
    outer loop
      vertex -27 19 16
      vertex -26.6955 20.5307 16
      vertex -26.8637 20.0353 16
    endloop
  endfacet
  facet normal 0 0 1
    outer loop
      vertex -27 19 16
      vertex -26.8637 20.0353 16
      vertex -26.9658 19.5221 16
    endloop
  endfacet
  facet normal 0 0 1
    outer loop
      vertex -22.9829 11.7389 16
      vertex -27 2.67426 16
      vertex -22.9319 11.4824 16
    endloop
  endfacet
  facet normal 0 0 1
    outer loop
      vertex -22.9319 11.4824 16
      vertex -27 2.67426 16
      vertex -22.8478 11.2346 16
    endloop
  endfacet
  facet normal 0 0 1
    outer loop
      vertex -12.4824 10.0681 16
      vertex -27 2.67426 16
      vertex 27 2.67426 16
    endloop
  endfacet
  facet normal 0 0 1
    outer loop
      vertex -21.5176 10.0681 16
      vertex -27 2.67426 16
      vertex -21.2611 10.0171 16
    endloop
  endfacet
  facet normal 0 0 1
    outer loop
      vertex -21.7654 10.1522 16
      vertex -27 2.67426 16
      vertex -21.5176 10.0681 16
    endloop
  endfacet
  facet normal 0 0 1
    outer loop
      vertex -22 10.2679 16
      vertex -27 2.67426 16
      vertex -21.7654 10.1522 16
    endloop
  endfacet
  facet normal 0 0 1
    outer loop
      vertex -22.2175 10.4133 16
      vertex -27 2.67426 16
      vertex -22 10.2679 16
    endloop
  endfacet
  facet normal 0 0 1
    outer loop
      vertex -22.4142 10.5858 16
      vertex -27 2.67426 16
      vertex -22.2175 10.4133 16
    endloop
  endfacet
  facet normal 0 0 1
    outer loop
      vertex -22.5867 10.7825 16
      vertex -27 2.67426 16
      vertex -22.4142 10.5858 16
    endloop
  endfacet
  facet normal 0 0 1
    outer loop
      vertex -22.732 11 16
      vertex -27 2.67426 16
      vertex -22.5867 10.7825 16
    endloop
  endfacet
  facet normal 0 0 1
    outer loop
      vertex -22.8478 11.2346 16
      vertex -27 2.67426 16
      vertex -22.732 11 16
    endloop
  endfacet
  facet normal 0 -0.207911 0.978148
    outer loop
      vertex -27 4.85478 5.74149
      vertex 27 0.550927 4.82668
      vertex 27 4.85478 5.74149
    endloop
  endfacet
  facet normal 0 -0.207911 0.978148
    outer loop
      vertex 27 0.550927 4.82668
      vertex -27 4.85478 5.74149
      vertex -27 0.550927 4.82668
    endloop
  endfacet
  facet normal 0 -0.978147 -0.207912
    outer loop
      vertex -27 4.85478 5.74149
      vertex 27 2.67426 16
      vertex -27 2.67426 16
    endloop
  endfacet
  facet normal 0 -0.978147 -0.207912
    outer loop
      vertex 27 2.67426 16
      vertex -27 4.85478 5.74149
      vertex 27 4.85478 5.74149
    endloop
  endfacet
  facet normal 0 0.978148 0.207912
    outer loop
      vertex 27 0.550927 4.82668
      vertex -27 -1.82404 16
      vertex 27 -1.82404 16
    endloop
  endfacet
  facet normal 0 0.978148 0.207912
    outer loop
      vertex -27 -1.82404 16
      vertex 27 0.550927 4.82668
      vertex -27 0.550927 4.82668
    endloop
  endfacet
endsolid OpenSCAD_Model
